<?xml version="1.0" encoding="UTF-8" standalone="no"?>
<!-- Created with Inkscape (http://www.inkscape.org/) -->

<svg
   xmlns:dc="http://purl.org/dc/elements/1.1/"
   xmlns:cc="http://creativecommons.org/ns#"
   xmlns:rdf="http://www.w3.org/1999/02/22-rdf-syntax-ns#"
   xmlns:svg="http://www.w3.org/2000/svg"
   xmlns="http://www.w3.org/2000/svg"
   xmlns:sodipodi="http://sodipodi.sourceforge.net/DTD/sodipodi-0.dtd"
   xmlns:inkscape="http://www.inkscape.org/namespaces/inkscape"
   id="svg3260"
   version="1.1"
   inkscape:version="0.48.4 r9939"
   width="531.5"
   height="177.175"
   xml:space="preserve"
   sodipodi:docname="getDigital_Logo_druck.pdf"><metadata
     id="metadata3266"><rdf:RDF><cc:Work
         rdf:about=""><dc:format>image/svg+xml</dc:format><dc:type
           rdf:resource="http://purl.org/dc/dcmitype/StillImage" /><dc:title></dc:title></cc:Work></rdf:RDF></metadata><defs
     id="defs3264"><clipPath
       clipPathUnits="userSpaceOnUse"
       id="clipPath3274"><path
         d="m 7416,7127.791 -430,0 0,142.4 430,0 0,-142.4 z"
         id="path3276" /></clipPath><linearGradient
       x1="0"
       y1="0"
       x2="1"
       y2="0"
       gradientUnits="userSpaceOnUse"
       gradientTransform="matrix(0,-142.40039,-142.40039,0,7201,7270.1914)"
       spreadMethod="pad"
       id="linearGradient3282"><stop
         style="stop-opacity:1;stop-color:#004876"
         offset="0"
         id="stop3284" /><stop
         style="stop-opacity:1;stop-color:#000000"
         offset="0.549454"
         id="stop3286" /><stop
         style="stop-opacity:1;stop-color:#000000"
         offset="0.549454"
         id="stop3288" /><stop
         style="stop-opacity:1;stop-color:#000000"
         offset="1"
         id="stop3290" /></linearGradient><clipPath
       clipPathUnits="userSpaceOnUse"
       id="clipPath3298"><path
         d="m 7024.212,7231.724 c -0.267,0 -0.52,-0.105 -0.708,-0.293 l 0,0 -7.814,-7.817 c -0.187,-0.188 -0.292,-0.441 -0.292,-0.708 l 0,0 0,-21.929 c 0,-0.268 0.105,-0.521 0.292,-0.709 l 0,0 7.879,-7.878 c 0.188,-0.188 0.441,-0.293 0.708,-0.293 l 0,0 16.27,0 0,-4.889 -3.223,-3.224 -17.774,0 c -0.552,0 -1.001,-0.448 -1.001,-1.001 l 0,0 0,-8.273 c 0,-0.552 0.449,-1.001 1.001,-1.001 l 0,0 22.327,0 c 0.268,0 0.52,0.105 0.708,0.293 l 0,0 7.944,7.944 c 0.188,0.188 0.293,0.441 0.293,0.708 l 0,0 0,48.069 c 0,0.553 -0.448,1.001 -1.001,1.001 l 0,0 -25.609,0 z m 1.59,-26.067 0,12.634 3.025,3.025 11.72,0 0,-18.879 -11.521,0 -3.224,3.22 z"
         id="path3300" /></clipPath><linearGradient
       x1="0"
       y1="0"
       x2="1"
       y2="0"
       gradientUnits="userSpaceOnUse"
       gradientTransform="matrix(0,58.012695,58.012695,0,7033.1089,7173.71)"
       spreadMethod="pad"
       id="linearGradient3306"><stop
         style="stop-opacity:1;stop-color:#ff7c00"
         offset="0"
         id="stop3308" /><stop
         style="stop-opacity:1;stop-color:#ffbe8c"
         offset="1"
         id="stop3310" /></linearGradient><clipPath
       clipPathUnits="userSpaceOnUse"
       id="clipPath3318"><path
         d="m 0,14400 14400,0 L 14400,0 0,0 0,14400 z"
         id="path3320" /></clipPath><clipPath
       clipPathUnits="userSpaceOnUse"
       id="clipPath3330"><path
         d="m 7063.539,7232.248 c -0.264,0 -0.517,-0.105 -0.705,-0.296 l 0,0 -7.943,-7.944 c -0.192,-0.188 -0.296,-0.441 -0.296,-0.705 l 0,0 0,-22.196 c 0,-0.268 0.104,-0.521 0.296,-0.709 l 0,0 8.008,-8.008 c 0.188,-0.192 0.441,-0.296 0.705,-0.296 l 0,0 21.738,0 c 0.553,0 1.001,0.448 1.001,1.001 l 0,0 0,8.47 c 0,0.55 -0.448,0.998 -1.001,0.998 l 0,0 -17.817,0 -2.461,2.461 0,1.912 23.494,0 c 0.553,0 1.001,0.448 1.001,1.001 l 0,0 0,15.233 c 0,0.267 -0.104,0.52 -0.292,0.708 l 0,0 -8.081,8.077 c -0.185,0.188 -0.441,0.293 -0.705,0.293 l 0,0 -16.942,0 z m 1.511,-13.538 3.064,3.065 7.799,0 3.101,-3.101 0,-1.269 -13.961,0 -0.01,1.305 z"
         id="path3332" /></clipPath><linearGradient
       x1="0"
       y1="0"
       x2="1"
       y2="0"
       gradientUnits="userSpaceOnUse"
       gradientTransform="matrix(0,40.151855,40.151855,0,7072.0776,7192.0947)"
       spreadMethod="pad"
       id="linearGradient3338"><stop
         style="stop-opacity:1;stop-color:#ff7c00"
         offset="0"
         id="stop3340" /><stop
         style="stop-opacity:1;stop-color:#ffbe8c"
         offset="1"
         id="stop3342" /></linearGradient><clipPath
       clipPathUnits="userSpaceOnUse"
       id="clipPath3350"><path
         d="m 0,14400 14400,0 L 14400,0 0,0 0,14400 z"
         id="path3352" /></clipPath><clipPath
       clipPathUnits="userSpaceOnUse"
       id="clipPath3362"><path
         d="m 7100.17,7240.719 c -0.553,0 -1.001,-0.448 -1.001,-1.001 l 0,0 0,-7.604 -5.302,0 c -0.553,0 -1.001,-0.448 -1.001,-1.001 l 0,0 0,-8.467 c 0,-0.553 0.448,-1.001 1.001,-1.001 l 0,0 5.302,0 0,-20.668 c 0,-0.268 0.104,-0.521 0.292,-0.709 l 0,0 7.882,-7.878 c 0.188,-0.192 0.441,-0.296 0.705,-0.296 l 0,0 15.431,0 c 0.554,0 1.001,0.448 1.001,1.001 l 0,0 0,8.47 c 0,0.55 -0.447,0.998 -1.001,0.998 l 0,0 -10.855,0 -2.986,2.981 0,16.101 9.508,0 c 0.553,0 1.001,0.448 1.001,1.001 l 0,0 0,8.467 c 0,0.553 -0.448,1.001 -1.001,1.001 l 0,0 -9.508,0 0,7.604 c 0,0.553 -0.448,1.001 -0.997,1.001 l 0,0 -8.471,0 z"
         id="path3364" /></clipPath><linearGradient
       x1="0"
       y1="0"
       x2="1"
       y2="0"
       gradientUnits="userSpaceOnUse"
       gradientTransform="matrix(0,48.623535,48.623535,0,7108.6738,7192.0947)"
       spreadMethod="pad"
       id="linearGradient3370"><stop
         style="stop-opacity:1;stop-color:#ff7c00"
         offset="0"
         id="stop3372" /><stop
         style="stop-opacity:1;stop-color:#ffbe8c"
         offset="1"
         id="stop3374" /></linearGradient><clipPath
       clipPathUnits="userSpaceOnUse"
       id="clipPath3382"><path
         d="m 0,14400 14400,0 L 14400,0 0,0 0,14400 z"
         id="path3384" /></clipPath></defs><sodipodi:namedview
     pagecolor="#ffffff"
     bordercolor="#666666"
     borderopacity="1"
     objecttolerance="10"
     gridtolerance="10"
     guidetolerance="10"
     inkscape:pageopacity="0"
     inkscape:pageshadow="2"
     inkscape:window-width="1596"
     inkscape:window-height="877"
     id="namedview3262"
     showgrid="false"
     inkscape:zoom="1.9370602"
     inkscape:cx="265.75"
     inkscape:cy="88.587502"
     inkscape:window-x="0"
     inkscape:window-y="19"
     inkscape:window-maximized="1"
     inkscape:current-layer="g3268" /><g
     id="g3268"
     inkscape:groupmode="layer"
     inkscape:label="getDigital_Logo_druck"
     transform="matrix(1.25,0,0,-1.25,-8734.875,9087.9625)"><g
       id="g3294"><g
         id="g3296"
         clip-path="url(#clipPath3298)"><g
           id="g3302"><g
             id="g3304"><path
               d="m 7024.212,7231.724 c -0.267,0 -0.52,-0.105 -0.708,-0.293 l 0,0 -7.814,-7.817 c -0.187,-0.188 -0.292,-0.441 -0.292,-0.708 l 0,0 0,-21.929 c 0,-0.268 0.105,-0.521 0.292,-0.709 l 0,0 7.879,-7.878 c 0.188,-0.188 0.441,-0.293 0.708,-0.293 l 0,0 16.27,0 0,-4.889 -3.223,-3.224 -17.774,0 c -0.552,0 -1.001,-0.448 -1.001,-1.001 l 0,0 0,-8.273 c 0,-0.552 0.449,-1.001 1.001,-1.001 l 0,0 22.327,0 c 0.268,0 0.52,0.105 0.708,0.293 l 0,0 7.944,7.944 c 0.188,0.188 0.293,0.441 0.293,0.708 l 0,0 0,48.069 c 0,0.553 -0.448,1.001 -1.001,1.001 l 0,0 -25.609,0 z m 1.59,-26.067 0,12.634 3.025,3.025 11.72,0 0,-18.879 -11.521,0 -3.224,3.22 z"
               style="fill:url(#linearGradient3306);stroke:none"
               id="path3312" /></g></g></g></g><g
       id="g3314"><g
         id="g3316"
         clip-path="url(#clipPath3318)"><g
           id="g3322"
           transform="translate(7029.2427,7220.3164)"><path
             d="m 0,0 10.305,0 0,-16.882 -10.108,0 -2.637,2.637 0,11.805 L 0,0 z m 20.578,12.406 -25.608,0 c -0.531,0 -1.039,-0.211 -1.414,-0.586 L -14.259,4.004 C -14.634,3.629 -14.845,3.121 -14.845,2.59 l 0,-21.931 c 0,-0.531 0.211,-1.039 0.586,-1.415 l 7.88,-7.879 c 0.375,-0.375 0.884,-0.586 1.414,-0.586 l 15.27,0 0,-3.476 -2.637,-2.636 -17.361,0 c -1.104,0 -2,-0.896 -2,-2 l 0,-8.273 c 0,-1.105 0.896,-2 2,-2 l 22.326,0 c 0.531,0 1.039,0.21 1.414,0.585 l 7.945,7.944 c 0.375,0.375 0.586,0.884 0.586,1.414 l 0,48.069 c 0,1.104 -0.895,2 -2,2 m -21.209,-31.288 12.936,0 0,20.882 -13.133,0 -3.612,-3.611 0,-13.462 3.809,-3.809 m 21.209,29.288 0,-48.069 -7.945,-7.943 -22.326,0 0,8.273 18.189,0 3.809,3.807 0,6.305 -17.27,0 -7.88,7.88 0,21.931 7.815,7.816 25.608,0"
             style="fill:#0c3c60;fill-opacity:1;fill-rule:nonzero;stroke:none"
             id="path3324" /></g></g></g><g
       id="g3326"><g
         id="g3328"
         clip-path="url(#clipPath3330)"><g
           id="g3334"><g
             id="g3336"><path
               d="m 7063.539,7232.248 c -0.264,0 -0.517,-0.105 -0.705,-0.296 l 0,0 -7.943,-7.944 c -0.192,-0.188 -0.296,-0.441 -0.296,-0.705 l 0,0 0,-22.196 c 0,-0.268 0.104,-0.521 0.296,-0.709 l 0,0 8.008,-8.008 c 0.188,-0.192 0.441,-0.296 0.705,-0.296 l 0,0 21.738,0 c 0.553,0 1.001,0.448 1.001,1.001 l 0,0 0,8.47 c 0,0.55 -0.448,0.998 -1.001,0.998 l 0,0 -17.817,0 -2.461,2.461 0,1.912 23.494,0 c 0.553,0 1.001,0.448 1.001,1.001 l 0,0 0,15.233 c 0,0.267 -0.104,0.52 -0.292,0.708 l 0,0 -8.081,8.077 c -0.185,0.188 -0.441,0.293 -0.705,0.293 l 0,0 -16.942,0 z m 1.511,-13.538 3.064,3.065 7.799,0 3.101,-3.101 0,-1.269 -13.961,0 -0.01,1.305 z"
               style="fill:url(#linearGradient3338);stroke:none"
               id="path3344" /></g></g></g></g><g
       id="g3346"><g
         id="g3348"
         clip-path="url(#clipPath3350)"><g
           id="g3354"
           transform="translate(7068.5283,7220.7759)"><path
             d="M 0,0 6.967,0 9.336,-2.37 -2.37,-2.37 0,0 z m 11.954,12.471 -16.942,0 c -0.53,0 -1.039,-0.211 -1.414,-0.586 l -7.945,-7.946 c -0.375,-0.375 -0.586,-0.883 -0.586,-1.414 l 0,-22.194 c 0,-0.531 0.211,-1.039 0.586,-1.414 l 8.011,-8.011 c 0.375,-0.375 0.883,-0.586 1.414,-0.586 l 21.735,0 c 1.105,0 2,0.895 2,2 l 0,8.469 c 0,1.104 -0.895,2 -2,2 l -17.398,0 -1.877,1.878 0,0.493 22.492,0 c 1.105,0 2,0.895 2,2 l 0,15.234 c 0,0.53 -0.211,1.039 -0.586,1.414 l -8.076,8.077 c -0.375,0.375 -0.884,0.586 -1.414,0.586 M -4.462,-4.37 l 15.956,0 -0.011,2.682 L 7.795,2 -0.828,2 -4.484,-1.656 -4.462,-4.37 m 16.416,14.841 8.076,-8.077 0,-15.234 -24.492,0 0,-3.322 3.048,-3.049 18.227,0 0,-8.469 -21.735,0 -8.011,8.011 0,22.194 7.945,7.946 16.942,0"
             style="fill:#0c3c60;fill-opacity:1;fill-rule:nonzero;stroke:none"
             id="path3356" /></g></g></g><g
       id="g3358"><g
         id="g3360"
         clip-path="url(#clipPath3362)"><g
           id="g3366"><g
             id="g3368"><path
               d="m 7100.17,7240.719 c -0.553,0 -1.001,-0.448 -1.001,-1.001 l 0,0 0,-7.604 -5.302,0 c -0.553,0 -1.001,-0.448 -1.001,-1.001 l 0,0 0,-8.467 c 0,-0.553 0.448,-1.001 1.001,-1.001 l 0,0 5.302,0 0,-20.668 c 0,-0.268 0.104,-0.521 0.292,-0.709 l 0,0 7.882,-7.878 c 0.188,-0.192 0.441,-0.296 0.705,-0.296 l 0,0 15.431,0 c 0.554,0 1.001,0.448 1.001,1.001 l 0,0 0,8.47 c 0,0.55 -0.447,0.998 -1.001,0.998 l 0,0 -10.855,0 -2.986,2.981 0,16.101 9.508,0 c 0.553,0 1.001,0.448 1.001,1.001 l 0,0 0,8.467 c 0,0.553 -0.448,1.001 -1.001,1.001 l 0,0 -9.508,0 0,7.604 c 0,0.553 -0.448,1.001 -0.997,1.001 l 0,0 -8.471,0 z"
               style="fill:url(#linearGradient3370);stroke:none"
               id="path3376" /></g></g></g></g><g
       id="g3378"><g
         id="g3380"
         clip-path="url(#clipPath3382)"><g
           id="g3386"
           transform="translate(7108.6401,7241.7173)"><path
             d="m 0,0 -8.472,0 c -1.104,0 -2,-0.896 -2,-2 l 0,-6.603 -4.302,0 c -1.105,0 -2,-0.895 -2,-2 l 0,-8.47 c 0,-1.104 0.895,-2 2,-2 l 4.302,0 0,-19.669 c 0,-0.53 0.211,-1.039 0.586,-1.415 l 7.881,-7.879 c 0.375,-0.375 0.883,-0.586 1.414,-0.586 l 15.431,0 c 1.104,0 2,0.896 2,2 l 0,8.469 c 0,1.105 -0.896,2 -2,2 l -10.443,0 -2.397,2.397 0,14.683 8.507,0 c 1.104,0 2,0.896 2,2 l 0,8.47 c 0,1.105 -0.896,2 -2,2 L 2,-8.603 2,-2 C 2,-0.896 1.104,0 0,0 m 0,-2 0,-8.603 10.507,0 0,-8.47 -10.507,0 0,-17.511 3.568,-3.569 11.272,0 0,-8.469 -15.431,0 -7.881,7.88 0,21.669 -6.302,0 0,8.47 6.302,0 0,8.603 L 0,-2"
             style="fill:#0c3c60;fill-opacity:1;fill-rule:nonzero;stroke:none"
             id="path3388" /></g><g
           id="g3390"
           transform="translate(7139.7754,7204.1421)"><path
             d="m 0,0 19.988,0 3.555,3.555 0,23.784 L 19.92,30.965 0,30.965 0,0 z m 25.398,-12.047 -36.575,0 c -0.552,0 -1,0.448 -1,1 l 0,53.125 c 0,0.551 0.448,1 1,1 l 36.443,0 c 0.266,0 0.519,-0.105 0.708,-0.294 l 9.456,-9.458 c 0.187,-0.187 0.292,-0.441 0.292,-0.706 l 0,-34.343 c 0,-0.266 -0.105,-0.519 -0.294,-0.706 l -9.324,-9.324 c -0.187,-0.19 -0.44,-0.294 -0.706,-0.294"
             style="fill:#ffffff;fill-opacity:1;fill-rule:nonzero;stroke:none"
             id="path3392" /></g><g
           id="g3394"
           transform="translate(7140.7754,7234.1064)"><path
             d="m 0,0 18.506,0 3.038,-3.039 0,-22.953 -2.973,-2.972 L 0,-28.964 0,0 z m 24.266,14.112 -36.443,0 c -1.105,0 -2,-0.895 -2,-2 l 0,-53.123 c 0,-1.104 0.895,-2 2,-2 l 36.574,0 c 0.53,0 1.039,0.211 1.414,0.586 l 9.326,9.323 c 0.375,0.376 0.586,0.885 0.586,1.415 l 0,34.343 c 0,0.53 -0.211,1.039 -0.586,1.414 l -9.457,9.456 c -0.375,0.375 -0.884,0.586 -1.414,0.586 M -2,-30.964 l 21.4,0 4.144,4.144 0,24.61 L 19.334,2 -2,2 -2,-30.964 m 26.266,43.076 9.457,-9.456 0,-34.343 -9.326,-9.324 -36.574,0 0,53.123 36.443,0"
             style="fill:#0c3c60;fill-opacity:1;fill-rule:nonzero;stroke:none"
             id="path3396" /></g><g
           id="g3398"
           transform="translate(7188.354,7235.959)"><path
             d="m 0,0 -8.537,0 c -0.552,0 -1.001,0.449 -1.001,1 l 0,8.472 c 0,0.552 0.449,1.001 1.001,1.001 l 8.537,0 c 0.552,0 1,-0.449 1,-1.001 L 1,1 C 1,0.449 0.552,0 0,0 m 0,-43.864 -8.537,0 c -0.552,0 -1.001,0.448 -1.001,1 l 0,37.954 c 0,0.552 0.449,1.001 1.001,1.001 l 8.537,0 c 0.552,0 1,-0.449 1,-1.001 l 0,-37.954 c 0,-0.552 -0.448,-1 -1,-1"
             style="fill:#ffffff;fill-opacity:1;fill-rule:nonzero;stroke:none"
             id="path3400" /></g><g
           id="g3402"
           transform="translate(7188.353,7233.0498)"><path
             d="m 0,0 -8.537,0 c -1.104,0 -2,-0.896 -2,-2 l 0,-37.954 c 0,-1.105 0.896,-2 2,-2 l 8.537,0 c 1.104,0 2,0.895 2,2 L 2,-2 C 2,-0.896 1.104,0 0,0 m 0,14.38 -8.537,0 c -1.104,0 -2,-0.895 -2,-2 l 0,-8.47 c 0,-1.104 0.896,-2 2,-2 L 0,1.91 c 1.104,0 2,0.896 2,2 l 0,8.47 c 0,1.105 -0.896,2 -2,2 m 0,-54.334 -8.537,0 0,37.954 L 0,-2 0,-39.954 z m 0,43.864 -8.537,0 0,8.47 8.537,0 0,-8.47 z"
             style="fill:#0c3c60;fill-opacity:1;fill-rule:nonzero;stroke:none"
             id="path3404" /></g><g
           id="g3406"
           transform="translate(7205.7773,7202.4355)"><path
             d="m 0,0 11.521,0 0,18.88 -11.716,0 -3.026,-3.026 0,-12.631 L 0,0 z m 12.851,-28.726 -22.327,0 c -0.553,0 -1.001,0.448 -1.001,1.001 l 0,8.273 c 0,0.554 0.448,1.001 1.001,1.001 l 17.777,0 3.22,3.218 0,4.892 -16.269,0 c -0.266,0 -0.52,0.106 -0.708,0.293 l -7.878,7.879 c -0.188,0.188 -0.294,0.441 -0.294,0.708 l 0,21.932 c 0,0.264 0.106,0.52 0.294,0.708 l 7.812,7.815 c 0.188,0.188 0.442,0.293 0.708,0.293 l 25.612,0 c 0.553,0 1.001,-0.448 1.001,-1.001 l 0,-48.068 c 0,-0.266 -0.108,-0.52 -0.293,-0.708 l -7.947,-7.943 c -0.188,-0.187 -0.444,-0.293 -0.708,-0.293"
             style="fill:#ffffff;fill-opacity:1;fill-rule:nonzero;stroke:none"
             id="path3408" /></g><g
           id="g3410"
           transform="translate(7205.9941,7220.3164)"><path
             d="m 0,0 10.306,0 0,-16.882 -10.109,0 -2.636,2.637 0,11.805 L 0,0 z m 20.58,12.406 -25.61,0 c -0.53,0 -1.039,-0.211 -1.414,-0.586 L -14.258,4.004 C -14.633,3.629 -14.844,3.121 -14.844,2.59 l 0,-21.931 c 0,-0.531 0.211,-1.039 0.586,-1.414 l 7.88,-7.88 c 0.375,-0.375 0.884,-0.586 1.414,-0.586 l 15.27,0 0,-3.476 -2.638,-2.636 -17.36,0 c -1.105,0 -2,-0.896 -2,-2 l 0,-8.273 c 0,-1.105 0.895,-2 2,-2 l 22.326,0 c 0.53,0 1.039,0.21 1.414,0.585 l 7.946,7.944 c 0.375,0.375 0.586,0.884 0.586,1.414 l 0,48.069 c 0,1.104 -0.895,2 -2,2 m -21.211,-31.288 12.937,0 0,20.882 -13.134,0 -3.611,-3.611 0,-13.462 3.808,-3.809 m 21.211,29.288 0,-48.069 -7.946,-7.943 -22.326,0 0,8.273 18.188,0 3.81,3.807 0,6.305 -17.27,0 -7.88,7.88 0,21.931 7.814,7.816 25.61,0"
             style="fill:#0c3c60;fill-opacity:1;fill-rule:nonzero;stroke:none"
             id="path3412" /></g><g
           id="g3414"
           transform="translate(7240.4287,7235.959)"><path
             d="m 0,0 -8.535,0 c -0.552,0 -1.001,0.449 -1.001,1 l 0,8.472 c 0,0.551 0.449,1 1.001,1 l 8.535,0 c 0.552,0 1,-0.449 1,-1 L 1,1 C 1,0.449 0.552,0 0,0 m 0,-43.863 -8.535,0 c -0.552,0 -1.001,0.448 -1.001,1 l 0,37.954 c 0,0.552 0.449,1 1.001,1 l 8.535,0 c 0.552,0 1,-0.448 1,-1 l 0,-37.954 c 0,-0.552 -0.448,-1 -1,-1"
             style="fill:#ffffff;fill-opacity:1;fill-rule:nonzero;stroke:none"
             id="path3416" /></g><g
           id="g3418"
           transform="translate(7240.4277,7233.0498)"><path
             d="m 0,0 -8.535,0 c -1.105,0 -2,-0.896 -2,-2 l 0,-37.954 c 0,-1.105 0.895,-2 2,-2 l 8.535,0 c 1.104,0 2,0.895 2,2 L 2,-2 C 2,-0.896 1.104,0 0,0 m 0,14.38 -8.535,0 c -1.105,0 -2,-0.895 -2,-2 l 0,-8.47 c 0,-1.104 0.895,-2 2,-2 L 0,1.91 c 1.104,0 2,0.896 2,2 l 0,8.47 c 0,1.105 -0.896,2 -2,2 m 0,-54.334 -8.535,0 0,37.954 L 0,-2 0,-39.954 z m 0,43.864 -8.535,0 0,8.47 8.535,0 0,-8.47 z"
             style="fill:#0c3c60;fill-opacity:1;fill-rule:nonzero;stroke:none"
             id="path3420" /></g><g
           id="g3422"
           transform="translate(7275.2266,7192.0947)"><path
             d="m 0,0 -15.432,0 c -0.265,0 -0.519,0.105 -0.708,0.293 l -7.88,7.879 c -0.186,0.189 -0.293,0.443 -0.293,0.708 l 0,20.669 -5.303,0 c -0.552,0 -1,0.449 -1,1.001 l 0,8.47 c 0,0.552 0.448,1 1,1 l 5.303,0 0,7.602 c 0,0.552 0.449,1 1.001,1 l 8.47,0 c 0.552,0 1,-0.448 1,-1 l 0,-7.602 9.508,0 c 0.552,0 1,-0.448 1,-1 l 0,-8.47 c 0,-0.552 -0.448,-1.001 -1,-1.001 l -9.508,0 0,-16.095 2.986,-2.983 10.856,0 c 0.552,0 1,-0.449 1,-1.001 L 1,1.001 C 1,0.448 0.552,0 0,0"
             style="fill:#ffffff;fill-opacity:1;fill-rule:nonzero;stroke:none"
             id="path3424" /></g><g
           id="g3426"
           transform="translate(7260.3848,7241.7173)"><path
             d="m 0,0 -8.471,0 c -1.104,0 -2,-0.896 -2,-2 l 0,-6.603 -4.302,0 c -1.105,0 -2,-0.895 -2,-2 l 0,-8.47 c 0,-1.104 0.895,-2 2,-2 l 4.302,0 0,-19.669 c 0,-0.53 0.211,-1.039 0.586,-1.415 l 7.881,-7.879 c 0.375,-0.375 0.884,-0.586 1.414,-0.586 l 15.432,0 c 1.104,0 2,0.896 2,2 l 0,8.469 c 0,1.105 -0.896,2 -2,2 l -10.445,0 -2.397,2.397 0,14.683 8.507,0 c 1.104,0 2,0.896 2,2 l 0,8.47 c 0,1.105 -0.896,2 -2,2 L 2,-8.603 2,-2 C 2,-0.896 1.104,0 0,0 m 0,-2 0,-8.603 10.507,0 0,-8.47 -10.507,0 0,-17.511 3.569,-3.569 11.273,0 0,-8.469 -15.432,0 -7.881,7.88 0,21.669 -6.302,0 0,8.47 6.302,0 0,8.603 L 0,-2"
             style="fill:#0c3c60;fill-opacity:1;fill-rule:nonzero;stroke:none"
             id="path3428" /></g><g
           id="g3430"
           transform="translate(7293.3604,7202.5)"><path
             d="m 0,0 10.802,0 0,18.159 -10.866,0 -3.026,-3.026 0,-12.04 L 0,0 z m 25.523,-10.404 -29.285,0 c -0.265,0 -0.52,0.103 -0.708,0.292 l -8.8,8.799 c -0.187,0.188 -0.292,0.443 -0.292,0.708 l 0,20.29 c 0,0.265 0.105,0.519 0.292,0.707 l 8.997,8.996 c 0.187,0.188 0.442,0.293 0.707,0.293 l 23.837,0 c 0.553,0 1,-0.447 1,-1 l 0,-28.681 4.252,0 c 0.554,0 1,-0.446 1,-1 l 0,-8.405 c 0,-0.553 -0.446,-0.999 -1,-0.999"
             style="fill:#ffffff;fill-opacity:1;fill-rule:nonzero;stroke:none"
             id="path3432" /></g><g
           id="g3434"
           transform="translate(7293.709,7219.6597)"><path
             d="m 0,0 9.453,0 0,-16.16 -9.388,0 -2.504,2.506 0,11.214 L 0,0 z m 19.922,13.521 -23.836,0 c -0.53,0 -1.039,-0.21 -1.414,-0.585 L -14.324,3.94 C -14.699,3.565 -14.91,3.056 -14.91,2.526 l 0,-20.291 c 0,-0.53 0.211,-1.039 0.586,-1.414 l 8.799,-8.799 c 0.375,-0.375 0.883,-0.586 1.414,-0.586 l 29.286,0 c 1.104,0 2,0.896 2,2 l 0,8.404 c 0,1.104 -0.896,2 -2,2 l -3.253,0 0,27.681 c 0,1.105 -0.896,2 -2,2 m -20.686,-31.681 12.217,0 0,20.16 -12.281,0 -3.611,-3.612 0,-12.87 3.675,-3.678 m 20.686,29.681 0,-29.681 5.253,0 0,-8.404 -29.286,0 -8.799,8.799 0,20.291 8.996,8.995 23.836,0"
             style="fill:#0c3c60;fill-opacity:1;fill-rule:nonzero;stroke:none"
             id="path3436" /></g><g
           id="g3438"
           transform="translate(7332.7354,7192.0977)"><path
             d="m 0,0 -8.8,0 c -0.552,0 -1,0.447 -1,0.999 l 0,52.662 c 0,0.552 0.448,0.999 1,0.999 l 8.8,0 c 0.552,0 0.999,-0.447 0.999,-0.999 l 0,-52.662 C 0.999,0.447 0.552,0 0,0"
             style="fill:#ffffff;fill-opacity:1;fill-rule:nonzero;stroke:none"
             id="path3440" /></g><g
           id="g3442"
           transform="translate(7332.7354,7247.7583)"><path
             d="m 0,0 -8.8,0 c -1.104,0 -2,-0.896 -2,-2 l 0,-52.663 c 0,-1.104 0.896,-2 2,-2 l 8.8,0 c 1.104,0 2,0.896 2,2 L 2,-2 C 2,-0.896 1.104,0 0,0 m 0,-54.663 -8.8,0 0,52.663 8.8,0 0,-52.663 z"
             style="fill:#0c3c60;fill-opacity:1;fill-rule:nonzero;stroke:none"
             id="path3444" /></g><g
           id="g3446"
           transform="translate(7343.04,7192.0947)"><path
             d="m 0,0 -4.925,0 c -0.552,0 -1,0.448 -1,1.001 l 0,4.925 c 0,0.552 0.448,1 1,1 l 4.925,0 c 0.553,0 1,-0.448 1,-1 L 1,1.001 C 1,0.448 0.553,0 0,0"
             style="fill:#ffffff;fill-opacity:1;fill-rule:nonzero;stroke:none"
             id="path3448" /></g><g
           id="g3450"
           transform="translate(7343.04,7200.0195)"><path
             d="m 0,0 -4.925,0 c -1.104,0 -2,-0.896 -2,-2 l 0,-4.924 c 0,-1.104 0.896,-2 2,-2 l 4.925,0 c 1.104,0 2,0.896 2,2 L 2,-2 C 2,-0.896 1.104,0 0,0 m 0,-6.924 -4.925,0 0,4.924 L 0,-2 0,-6.924 z"
             style="fill:#0c3c60;fill-opacity:1;fill-rule:nonzero;stroke:none"
             id="path3452" /></g><g
           id="g3454"
           transform="translate(7355.1719,7198.332)"><path
             d="m 0,0 5.142,0 0,8.536 -5.195,0 -1.242,-1.242 0,-6 L 0,0 z m 10.411,-6.237 -12.904,0 c -0.264,0 -0.521,0.107 -0.707,0.294 l -4.006,4.004 C -7.393,-1.753 -7.5,-1.497 -7.5,-1.232 l 0,11.099 c 0,0.264 0.107,0.52 0.294,0.707 l 3.907,3.905 c 0.187,0.187 0.444,0.294 0.707,0.294 l 7.734,0 0,6.388 c 0,0.552 0.449,1.001 1.001,1.001 l 4.268,0 c 0.552,0 1.001,-0.449 1.001,-1.001 l 0,-26.397 c 0,-0.552 -0.449,-1.001 -1.001,-1.001"
             style="fill:#ffffff;fill-opacity:1;fill-rule:nonzero;stroke:none"
             id="path3456" /></g><g
           id="g3458"
           transform="translate(7355.5352,7205.8701)"><path
             d="m 0,0 3.778,0 0,-6.54 -3.725,0 -0.711,0.711 0,5.171 L 0,0 z m 10.047,15.623 -4.269,0 c -1.104,0 -2,-0.896 -2,-2 l 0,-5.388 -6.732,0 c -0.53,0 -1.039,-0.211 -1.414,-0.586 L -8.275,3.742 C -8.65,3.367 -8.861,2.858 -8.861,2.328 l 0,-11.099 c 0,-0.53 0.211,-1.039 0.586,-1.414 l 4.004,-4.003 c 0.375,-0.375 0.884,-0.586 1.415,-0.586 l 12.903,0 c 1.104,0 2,0.895 2,2 l 0,26.397 c 0,1.104 -0.896,2 -2,2 M -0.776,-8.54 l 6.554,0 0,10.54 -6.607,0 -1.829,-1.83 0,-6.827 1.882,-1.883 m 10.823,22.163 0,-26.397 -12.903,0 -4.005,4.003 0,11.099 3.907,3.907 8.732,0 0,7.388 4.269,0"
             style="fill:#0c3c60;fill-opacity:1;fill-rule:nonzero;stroke:none"
             id="path3460" /></g><g
           id="g3462"
           transform="translate(7376.042,7205.7495)"><path
             d="M 0,0 5.857,0 4.671,1.187 1.187,1.187 0,0 z m 9.594,-13.653 -10.869,0 c -0.265,0 -0.52,0.106 -0.707,0.293 l -4.004,4.004 c -0.187,0.187 -0.292,0.441 -0.292,0.707 l 0,11.098 c 0,0.265 0.105,0.52 0.292,0.707 l 3.972,3.972 c 0.188,0.187 0.442,0.292 0.707,0.292 l 8.471,0 c 0.265,0 0.52,-0.105 0.706,-0.292 L 11.908,3.091 C 12.096,2.903 12.2,2.649 12.2,2.384 l 0,-7.619 c 0,-0.551 -0.448,-0.999 -0.999,-0.999 l -11.248,0 0,-0.246 0.943,-0.94 8.698,0 c 0.551,0 0.999,-0.449 0.999,-1 l 0,-4.233 c 0,-0.552 -0.448,-1 -0.999,-1"
             style="fill:#ffffff;fill-opacity:1;fill-rule:nonzero;stroke:none"
             id="path3464" /></g><g
           id="g3466"
           transform="translate(7383.2051,7214.1709)"><path
             d="m 0,0 -8.471,0 c -0.53,0 -1.039,-0.211 -1.414,-0.586 l -3.971,-3.973 c -0.375,-0.375 -0.586,-0.883 -0.586,-1.414 l 0,-11.098 c 0,-0.531 0.211,-1.039 0.586,-1.414 l 4.004,-4.004 c 0.375,-0.375 0.884,-0.586 1.414,-0.586 l 10.868,0 c 1.104,0 2,0.895 2,2 l 0,4.234 c 0,0.444 -0.145,0.854 -0.389,1.186 1.104,10e-4 1.997,0.896 1.997,2 l 0,7.617 c 0,0.53 -0.211,1.039 -0.586,1.414 L 1.414,-0.586 C 1.039,-0.21 0.53,0 0,0 m -8.208,-9.42 7.978,0 -0.005,1.341 -1.843,1.844 -4.313,0 -1.828,-1.828 0.011,-1.357 M 0,-2 l 4.038,-4.038 0,-7.617 -12.246,0 0,-1.661 1.526,-1.525 9.112,0 0,-4.234 -10.868,0 -4.004,4.004 0,11.098 L -8.471,-2 0,-2"
             style="fill:#0c3c60;fill-opacity:1;fill-rule:nonzero;stroke:none"
             id="path3468" /></g><g
           id="g3470"
           transform="translate(7036.6294,7153.1992)"><path
             d="m 0,0 -1.807,0 c -0.277,0 -0.501,0.224 -0.501,0.5 l 0,4.269 L -7,10.656 c -0.12,0.151 -0.143,0.356 -0.06,0.53 0.083,0.173 0.259,0.283 0.451,0.283 l 1.998,0 c 0.153,0 0.298,-0.071 0.39,-0.191 l 3.326,-4.191 3.36,4.193 c 0.095,0.118 0.24,0.189 0.391,0.189 l 1.927,0 c 0.193,0 0.368,-0.112 0.451,-0.285 C 5.317,11.01 5.292,10.803 5.172,10.652 L 0.5,4.911 0.5,0.5 C 0.5,0.224 0.277,0 0,0"
             style="fill:#ffffff;fill-opacity:1;fill-rule:nonzero;stroke:none"
             id="path3472" /></g><g
           id="g3474"
           transform="translate(7041.4126,7165.167)"><path
             d="M 0,0 -1.926,0 C -2.23,0 -2.517,-0.138 -2.707,-0.375 l -2.967,-3.703 -2.937,3.7 C -8.8,-0.14 -9.089,0 -9.394,0 l -1.999,0 c -0.384,0 -0.734,-0.22 -0.901,-0.566 -0.166,-0.346 -0.121,-0.757 0.119,-1.057 l 4.584,-5.752 0,-4.092 c 0,-0.553 0.447,-1 1,-1 l 1.807,0 c 0.553,0 1,0.447 1,1 l 0,4.236 4.559,5.599 c 0.244,0.3 0.294,0.713 0.128,1.062 C 0.737,-0.222 0.386,0 0,0 m 0,-1 -4.784,-5.876 0,-4.591 -1.807,0 0,4.442 -4.802,6.025 1.999,0 3.716,-4.682 L -1.926,-1 0,-1"
             style="fill:#333333;fill-opacity:1;fill-rule:nonzero;stroke:none"
             id="path3476" /></g><g
           id="g3478"
           transform="translate(7049.4927,7162.6836)"><path
             d="m 0,0 c -1.243,0 -2.221,-0.327 -2.912,-0.972 -0.688,-0.645 -1.023,-1.555 -1.023,-2.782 0,-1.236 0.339,-2.146 1.04,-2.781 0.713,-0.65 1.661,-0.964 2.895,-0.964 1.218,0 2.19,0.325 2.891,0.964 0.697,0.633 1.036,1.543 1.036,2.781 0,1.227 -0.335,2.135 -1.028,2.779 C 2.209,-0.327 1.233,0 0,0 m -0.008,-9.701 c -0.999,0 -1.926,0.13 -2.753,0.387 -0.847,0.264 -1.577,0.653 -2.171,1.16 -0.604,0.51 -1.075,1.145 -1.4,1.887 -0.323,0.735 -0.486,1.58 -0.486,2.513 0,0.914 0.161,1.754 0.48,2.492 0.324,0.746 0.798,1.394 1.41,1.921 0.588,0.503 1.318,0.892 2.176,1.154 0.837,0.259 1.762,0.389 2.744,0.389 1.015,0 1.95,-0.132 2.775,-0.39 C 3.599,1.547 4.32,1.162 4.914,0.664 5.524,0.146 6,-0.492 6.326,-1.239 6.646,-1.985 6.81,-2.829 6.81,-3.754 6.81,-4.685 6.643,-5.532 6.314,-6.272 5.981,-7.025 5.509,-7.66 4.914,-8.158 4.308,-8.671 3.582,-9.063 2.757,-9.32 1.952,-9.573 1.022,-9.701 -0.008,-9.701"
             style="fill:#ffffff;fill-opacity:1;fill-rule:nonzero;stroke:none"
             id="path3480" /></g><g
           id="g3482"
           transform="translate(7049.4937,7155.6836)"><path
             d="m 0,0 c -1.104,0 -1.941,0.272 -2.56,0.834 -0.59,0.536 -0.877,1.325 -0.877,2.412 0,1.08 0.283,1.87 0.866,2.415 C -1.97,6.226 -1.129,6.5 0,6.5 1.117,6.5 1.954,6.226 2.558,5.661 3.143,5.115 3.427,4.325 3.427,3.246 3.427,2.158 3.141,1.369 2.553,0.833 1.938,0.272 1.103,0 0,0 m -0.009,9.701 c -1.032,0 -2.004,-0.138 -2.89,-0.409 C -3.825,9.008 -4.616,8.586 -5.253,8.039 -5.925,7.462 -6.445,6.755 -6.797,5.938 -7.143,5.139 -7.318,4.233 -7.318,3.246 c 0,-1.004 0.178,-1.917 0.528,-2.714 0.355,-0.811 0.871,-1.509 1.534,-2.069 0.648,-0.55 1.437,-0.972 2.343,-1.254 0.874,-0.272 1.851,-0.409 2.904,-0.409 1.082,0 2.062,0.136 2.914,0.402 0.89,0.278 1.676,0.703 2.333,1.261 0.653,0.547 1.17,1.243 1.533,2.063 0.356,0.808 0.537,1.723 0.537,2.72 0,0.997 -0.177,1.909 -0.526,2.712 C 6.427,6.775 5.907,7.477 5.238,8.044 4.593,8.585 3.813,9.002 2.918,9.286 2.045,9.562 1.061,9.701 -0.009,9.701 M 0,-1 c 1.351,0 2.427,0.365 3.227,1.094 0.8,0.729 1.2,1.779 1.2,3.152 0,1.359 -0.395,2.407 -1.186,3.146 C 2.45,7.131 1.369,7.5 0,7.5 -1.382,7.5 -2.467,7.131 -3.254,6.392 -4.043,5.653 -4.437,4.605 -4.437,3.246 -4.437,1.873 -4.036,0.823 -3.231,0.094 -2.429,-0.635 -1.352,-1 0,-1 M -0.009,8.701 C 0.964,8.701 1.839,8.578 2.615,8.333 3.391,8.087 4.049,7.735 4.592,7.28 5.146,6.812 5.57,6.237 5.865,5.56 6.16,4.881 6.308,4.109 6.308,3.246 6.308,2.385 6.157,1.611 5.856,0.931 5.555,0.248 5.133,-0.32 4.592,-0.774 4.032,-1.249 3.37,-1.604 2.606,-1.844 1.842,-2.083 0.971,-2.2 -0.009,-2.2 c -0.956,0 -1.824,0.121 -2.607,0.364 -0.781,0.243 -1.447,0.598 -1.994,1.062 -0.548,0.463 -0.97,1.034 -1.265,1.709 -0.295,0.672 -0.443,1.444 -0.443,2.311 0,0.853 0.146,1.618 0.439,2.295 0.292,0.677 0.718,1.259 1.278,1.739 0.535,0.46 1.201,0.812 1.995,1.056 0.793,0.243 1.66,0.365 2.597,0.365"
             style="fill:#333333;fill-opacity:1;fill-rule:nonzero;stroke:none"
             id="path3484" /></g><g
           id="g3486"
           transform="translate(7064.521,7152.9824)"><path
             d="m 0,0 c -0.897,0 -1.691,0.093 -2.359,0.277 -0.696,0.191 -1.291,0.478 -1.773,0.856 -0.56,0.434 -0.972,0.974 -1.222,1.598 -0.238,0.603 -0.358,1.338 -0.358,2.191 l 0,6.262 c 0,0.277 0.224,0.501 0.501,0.501 l 1.807,0 c 0.277,0 0.501,-0.224 0.501,-0.501 l 0,-6.332 c 0,-0.515 0.043,-0.92 0.126,-1.2 0.08,-0.26 0.213,-0.492 0.403,-0.705 C -2.163,2.711 -1.87,2.527 -1.497,2.401 -1.094,2.265 -0.589,2.196 0,2.196 c 0.593,0 1.1,0.069 1.505,0.202 0.375,0.123 0.662,0.303 0.875,0.546 0.193,0.218 0.325,0.453 0.404,0.727 0.087,0.298 0.13,0.683 0.13,1.145 l 0,6.368 c 0,0.277 0.223,0.501 0.5,0.501 l 1.808,0 c 0.277,0 0.5,-0.224 0.5,-0.501 l 0,-6.262 C 5.722,4.101 5.6,3.373 5.364,2.757 5.116,2.105 4.703,1.558 4.136,1.127 3.617,0.734 3.007,0.442 2.318,0.263 1.648,0.087 0.889,0 0,0"
             style="fill:#ffffff;fill-opacity:1;fill-rule:nonzero;stroke:none"
             id="path3488" /></g><g
           id="g3490"
           transform="translate(7069.7427,7165.167)"><path
             d="m 0,0 -1.808,0 c -0.552,0 -1,-0.447 -1,-1 l 0,-6.368 c 0,-0.416 -0.037,-0.754 -0.109,-1.005 -0.059,-0.2 -0.157,-0.376 -0.298,-0.536 -0.154,-0.175 -0.371,-0.307 -0.661,-0.404 -0.352,-0.117 -0.806,-0.176 -1.346,-0.176 -0.533,0 -0.983,0.06 -1.338,0.179 -0.287,0.097 -0.51,0.233 -0.66,0.403 -0.144,0.162 -0.242,0.334 -0.301,0.524 -0.047,0.157 -0.105,0.47 -0.105,1.05 l 0,6.333 c 0,0.553 -0.448,1 -1,1 l -1.808,0 c -0.552,0 -1,-0.447 -1,-1 l 0,-6.264 c 0,-0.915 0.133,-1.713 0.394,-2.371 0.283,-0.711 0.747,-1.32 1.379,-1.812 0.53,-0.415 1.186,-0.733 1.946,-0.943 0.715,-0.195 1.553,-0.294 2.493,-0.294 0.935,0 1.735,0.091 2.446,0.279 0.747,0.194 1.419,0.514 1.993,0.95 0.645,0.489 1.114,1.112 1.394,1.852 C 0.869,-8.932 1,-8.143 1,-7.264 L 1,-1 C 1,-0.447 0.552,0 0,0 m 0,-1 0,-6.264 c 0,-0.758 -0.108,-1.421 -0.324,-1.984 -0.215,-0.567 -0.57,-1.036 -1.063,-1.41 -0.468,-0.356 -1.017,-0.617 -1.643,-0.78 -0.628,-0.166 -1.357,-0.246 -2.192,-0.246 -0.852,0 -1.594,0.085 -2.227,0.258 -0.633,0.175 -1.166,0.43 -1.597,0.768 -0.494,0.384 -0.848,0.847 -1.064,1.391 -0.216,0.543 -0.324,1.211 -0.324,2.003 l 0,6.264 1.808,0 0,-6.333 c 0,-0.567 0.049,-1.015 0.149,-1.344 0.101,-0.327 0.27,-0.624 0.508,-0.893 0.267,-0.302 0.631,-0.533 1.091,-0.688 0.46,-0.154 1.011,-0.231 1.656,-0.231 0.652,0 1.206,0.076 1.662,0.227 0.457,0.153 0.822,0.382 1.096,0.692 0.237,0.269 0.406,0.574 0.506,0.918 0.101,0.345 0.15,0.773 0.15,1.284 L -1.808,-1 0,-1"
             style="fill:#333333;fill-opacity:1;fill-rule:nonzero;stroke:none"
             id="path3492" /></g><g
           id="g3494"
           transform="translate(7076.3442,7159.5205)"><path
             d="M 0,0 1.324,0 C 1.863,0 2.339,0.038 2.732,0.11 3.087,0.174 3.385,0.29 3.617,0.457 3.828,0.608 3.977,0.771 4.068,0.954 4.163,1.136 4.21,1.388 4.21,1.7 4.21,1.911 4.167,2.091 4.074,2.248 3.989,2.391 3.83,2.525 3.599,2.644 3.385,2.751 3.123,2.829 2.819,2.877 2.476,2.927 2.072,2.951 1.625,2.951 L 0,2.951 0,0 z m 8.94,-6.321 -2.347,0 c -0.124,0 -0.246,0.048 -0.337,0.133 L 1.853,-2.16 0,-2.16 0,-5.821 c 0,-0.277 -0.223,-0.5 -0.5,-0.5 l -1.81,0 c -0.277,0 -0.5,0.223 -0.5,0.5 l 0,10.468 c 0,0.277 0.223,0.5 0.5,0.5 l 3.808,0 C 2.327,5.147 3.042,5.104 3.625,5.018 4.219,4.931 4.765,4.77 5.249,4.535 5.813,4.261 6.262,3.907 6.583,3.482 6.928,3.032 7.102,2.468 7.102,1.802 7.102,0.914 6.806,0.159 6.223,-0.442 5.838,-0.837 5.354,-1.166 4.777,-1.425 L 9.273,-5.448 C 9.428,-5.587 9.482,-5.807 9.407,-5.999 9.333,-6.193 9.146,-6.321 8.94,-6.321"
             style="fill:#ffffff;fill-opacity:1;fill-rule:nonzero;stroke:none"
             id="path3496" /></g><g
           id="g3498"
           transform="translate(7076.8433,7161.9717)"><path
             d="M 0,0 1.127,0 C 1.559,0 1.937,-0.023 2.251,-0.069 2.495,-0.107 2.707,-0.17 2.872,-0.255 3.075,-0.358 3.134,-0.438 3.147,-0.461 3.175,-0.508 3.212,-0.59 3.212,-0.751 3.212,-1.055 3.158,-1.206 3.126,-1.27 3.069,-1.381 2.971,-1.485 2.827,-1.589 2.654,-1.712 2.424,-1.8 2.147,-1.85 1.781,-1.917 1.338,-1.95 0.825,-1.95 L 0,-1.95 0,0 z m 0.999,3.195 -3.807,0 c -0.552,0 -1,-0.447 -1,-1 l 0,-10.466 c 0,-0.553 0.448,-1 1,-1 l 1.808,0 c 0.552,0 1,0.447 1,1 l 0,3.161 1.158,0 4.26,-3.899 c 0.185,-0.169 0.425,-0.262 0.675,-0.262 l 2.347,0 c 0.414,0 0.786,0.255 0.934,0.643 0.148,0.387 0.042,0.825 -0.267,1.102 l -3.96,3.543 c 0.352,0.215 0.663,0.462 0.932,0.739 0.68,0.701 1.023,1.573 1.023,2.594 0,0.776 -0.208,1.443 -0.618,1.984 C 6.109,1.825 5.6,2.228 4.968,2.533 4.438,2.788 3.843,2.965 3.2,3.061 2.602,3.149 1.861,3.195 0.999,3.195 M -1,-2.95 l 1.825,0 c 0.573,0 1.072,0.038 1.498,0.116 0.426,0.076 0.788,0.221 1.086,0.433 0.274,0.196 0.476,0.421 0.607,0.676 0.131,0.256 0.196,0.581 0.196,0.974 0,0.302 -0.067,0.567 -0.205,0.8 C 3.87,0.28 3.643,0.475 3.327,0.636 3.065,0.77 2.755,0.864 2.396,0.92 2.037,0.973 1.614,1 1.127,1 L -1,1 -1,-2.95 M 0.999,2.195 C 1.821,2.195 2.505,2.153 3.053,2.071 3.601,1.99 4.094,1.844 4.532,1.633 5.025,1.395 5.41,1.093 5.687,0.729 5.963,0.365 6.102,-0.094 6.102,-0.65 6.102,-1.405 5.855,-2.038 5.363,-2.547 4.869,-3.054 4.191,-3.438 3.327,-3.696 l 5.113,-4.575 -2.347,0 -4.547,4.161 -2.546,0 0,-4.161 -1.808,0 0,10.466 3.807,0"
             style="fill:#333333;fill-opacity:1;fill-rule:nonzero;stroke:none"
             id="path3500" /></g><g
           id="g3502"
           transform="translate(7101.6436,7152.9951)"><path
             d="m 0,0 c -1.09,0 -2.109,0.12 -3.034,0.354 -0.943,0.24 -1.759,0.607 -2.425,1.091 -0.689,0.5 -1.229,1.136 -1.605,1.886 -0.374,0.749 -0.564,1.628 -0.564,2.616 0,1.83 0.707,3.299 2.098,4.36 1.355,1.032 3.214,1.554 5.53,1.554 0.807,0 1.634,-0.074 2.459,-0.222 0.819,-0.143 1.725,-0.396 2.688,-0.749 0.197,-0.073 0.329,-0.261 0.329,-0.47 l 0,-1.652 c 0,-0.277 -0.223,-0.5 -0.5,-0.5 l -0.163,0 C 4.724,8.268 4.635,8.292 4.558,8.338 4.376,8.445 4.109,8.588 3.762,8.766 3.423,8.938 3.085,9.082 2.765,9.196 2.366,9.333 1.911,9.448 1.415,9.537 0.906,9.628 0.325,9.674 -0.31,9.674 -1.702,9.674 -2.806,9.335 -3.594,8.665 -4.372,8.007 -4.748,7.132 -4.748,5.991 c 0,-1.206 0.393,-2.114 1.204,-2.773 0.829,-0.672 1.993,-1.014 3.461,-1.014 0.565,0 1.127,0.044 1.673,0.128 0.404,0.061 0.774,0.135 1.107,0.224 l 0,1.691 -3.143,0 c -0.278,0 -0.501,0.224 -0.501,0.501 l 0,1.222 c 0,0.277 0.223,0.501 0.501,0.501 l 5.432,0 c 0.277,0 0.501,-0.224 0.501,-0.501 l 0,-4.491 C 5.487,1.268 5.352,1.077 5.154,1.007 4.405,0.742 3.565,0.507 2.662,0.304 1.739,0.104 0.846,0 0,0"
             style="fill:#ffffff;fill-opacity:1;fill-rule:nonzero;stroke:none"
             id="path3504" /></g><g
           id="g3506"
           transform="translate(7101.6445,7165.3564)"><path
             d="m 0,0 c -2.43,0 -4.392,-0.558 -5.833,-1.656 -1.523,-1.163 -2.296,-2.764 -2.296,-4.757 0,-1.065 0.207,-2.02 0.615,-2.839 0.415,-0.826 1.007,-1.521 1.76,-2.068 0.721,-0.523 1.594,-0.917 2.594,-1.173 0.962,-0.244 2.024,-0.367 3.16,-0.367 0.885,0 1.816,0.105 2.765,0.313 0.923,0.205 1.78,0.448 2.553,0.722 0.399,0.14 0.666,0.518 0.666,0.942 l 0,4.492 c 0,0.553 -0.447,1 -1,1 l -5.431,0 c -0.553,0 -1,-0.447 -1,-1 l 0,-1.223 c 0,-0.553 0.447,-1 1,-1 l 2.642,0 0,-0.797 c -0.213,-0.046 -0.44,-0.088 -0.678,-0.124 -0.522,-0.081 -1.059,-0.122 -1.6,-0.122 -1.351,0 -2.41,0.303 -3.148,0.903 -0.685,0.557 -1.018,1.336 -1.018,2.383 0,0.985 0.319,1.736 0.976,2.293 0.695,0.591 1.692,0.89 2.962,0.89 0.608,0 1.16,-0.042 1.639,-0.127 0.474,-0.086 0.905,-0.196 1.276,-0.324 0.302,-0.106 0.618,-0.243 0.933,-0.403 0.332,-0.17 0.588,-0.307 0.764,-0.411 0.154,-0.092 0.331,-0.141 0.511,-0.141 l 0.163,0 c 0.552,0 1,0.448 1,1 l 0,1.654 c 0,0.419 -0.262,0.794 -0.656,0.939 C 4.331,-0.64 3.396,-0.38 2.542,-0.229 1.685,-0.077 0.829,0 0,0 M 0,-1 C 0.773,-1 1.562,-1.071 2.37,-1.215 3.176,-1.356 4.044,-1.6 4.975,-1.94 l 0,-1.654 -0.163,0 c -0.189,0.113 -0.463,0.26 -0.822,0.444 -0.36,0.182 -0.713,0.334 -1.06,0.457 -0.419,0.144 -0.895,0.265 -1.428,0.362 -0.533,0.095 -1.137,0.143 -1.813,0.143 -1.521,0 -2.724,-0.375 -3.609,-1.127 -0.886,-0.752 -1.329,-1.771 -1.329,-3.056 0,-1.354 0.462,-2.407 1.387,-3.159 0.925,-0.751 2.185,-1.127 3.779,-1.127 0.585,0 1.168,0.043 1.749,0.134 0.582,0.087 1.091,0.203 1.529,0.342 l 0,2.567 -3.642,0 0,1.223 5.431,0 0,-4.492 C 4.242,-11.146 3.432,-11.374 2.551,-11.57 1.672,-11.763 0.822,-11.86 0,-11.86 c -1.059,0 -2.03,0.112 -2.912,0.336 -0.882,0.225 -1.634,0.563 -2.255,1.013 -0.627,0.455 -1.11,1.024 -1.452,1.705 -0.34,0.682 -0.51,1.479 -0.51,2.393 0,1.674 0.633,2.993 1.903,3.962 C -3.958,-1.483 -2.215,-1 0,-1"
             style="fill:#333333;fill-opacity:1;fill-rule:nonzero;stroke:none"
             id="path3508" /></g><g
           id="g3510"
           transform="translate(7119.583,7153.1992)"><path
             d="m 0,0 -8.954,0 c -0.277,0 -0.501,0.224 -0.501,0.5 l 0,10.469 c 0,0.276 0.224,0.5 0.501,0.5 l 8.954,0 c 0.277,0 0.5,-0.224 0.5,-0.5 l 0,-1.24 C 0.5,9.452 0.277,9.229 0,9.229 l -6.646,0 0,-1.867 6.646,0 c 0.277,0 0.5,-0.223 0.5,-0.501 l 0,-1.234 C 0.5,5.35 0.277,5.126 0,5.126 l -6.646,0 0,-2.887 6.646,0 c 0.277,0 0.5,-0.222 0.5,-0.5 L 0.5,0.5 C 0.5,0.224 0.277,0 0,0"
             style="fill:#ffffff;fill-opacity:1;fill-rule:nonzero;stroke:none"
             id="path3512" /></g><g
           id="g3514"
           transform="translate(7119.584,7165.167)"><path
             d="m 0,0 -8.955,0 c -0.552,0 -1,-0.447 -1,-1 l 0,-10.467 c 0,-0.553 0.448,-1 1,-1 l 8.955,0 c 0.552,0 1,0.447 1,1 l 0,1.238 c 0,0.552 -0.448,1 -1,1 l -6.147,0 0,1.887 6.147,0 c 0.552,0 1,0.447 1,1 l 0,1.236 c 0,0.552 -0.448,1 -1,1 l -6.147,0 0,0.869 6.147,0 c 0.552,0 1,0.447 1,1 L 1,-1 C 1,-0.447 0.552,0 0,0 m 0,-1 0,-1.237 -7.147,0 0,-2.869 7.147,0 0,-1.236 -7.147,0 0,-3.887 7.147,0 0,-1.238 -8.955,0 0,10.467 L 0,-1"
             style="fill:#333333;fill-opacity:1;fill-rule:nonzero;stroke:none"
             id="path3516" /></g><g
           id="g3518"
           transform="translate(7132.2471,7153.1992)"><path
             d="m 0,0 -8.954,0 c -0.277,0 -0.501,0.224 -0.501,0.5 l 0,10.469 c 0,0.276 0.224,0.5 0.501,0.5 l 8.954,0 c 0.277,0 0.5,-0.224 0.5,-0.5 l 0,-1.24 C 0.5,9.452 0.277,9.229 0,9.229 l -6.646,0 0,-1.867 6.646,0 c 0.277,0 0.5,-0.223 0.5,-0.501 l 0,-1.234 C 0.5,5.35 0.277,5.126 0,5.126 l -6.646,0 0,-2.887 6.646,0 c 0.277,0 0.5,-0.222 0.5,-0.5 L 0.5,0.5 C 0.5,0.224 0.277,0 0,0"
             style="fill:#ffffff;fill-opacity:1;fill-rule:nonzero;stroke:none"
             id="path3520" /></g><g
           id="g3522"
           transform="translate(7132.248,7165.167)"><path
             d="m 0,0 -8.956,0 c -0.552,0 -1,-0.447 -1,-1 l 0,-10.467 c 0,-0.553 0.448,-1 1,-1 l 8.956,0 c 0.552,0 1,0.447 1,1 l 0,1.238 c 0,0.552 -0.448,1 -1,1 l -6.148,0 0,1.887 6.148,0 c 0.552,0 1,0.447 1,1 l 0,1.236 c 0,0.552 -0.448,1 -1,1 l -6.148,0 0,0.869 6.148,0 c 0.552,0 1,0.447 1,1 L 1,-1 C 1,-0.447 0.552,0 0,0 m 0,-1 0,-1.237 -7.148,0 0,-2.869 7.148,0 0,-1.236 -7.148,0 0,-3.887 7.148,0 0,-1.238 -8.956,0 0,10.467 L 0,-1"
             style="fill:#333333;fill-opacity:1;fill-rule:nonzero;stroke:none"
             id="path3524" /></g><g
           id="g3526"
           transform="translate(7146.8838,7153.1992)"><path
             d="m 0,0 -2.347,0 c -0.12,0 -0.236,0.043 -0.327,0.122 l -5.058,4.384 -0.841,-0.693 0,-3.313 C -8.573,0.224 -8.797,0 -9.074,0 l -1.807,0 c -0.277,0 -0.501,0.224 -0.501,0.5 l 0,10.469 c 0,0.276 0.224,0.5 0.501,0.5 l 1.807,0 c 0.277,0 0.501,-0.224 0.501,-0.5 l 0,-4.402 5.78,4.786 c 0.088,0.075 0.202,0.116 0.318,0.116 l 2.192,0 c 0.211,0 0.401,-0.135 0.471,-0.333 0.071,-0.2 0.009,-0.422 -0.157,-0.557 L -5.577,6.034 0.329,0.877 C 0.486,0.74 0.542,0.519 0.468,0.324 0.395,0.13 0.209,0 0,0"
             style="fill:#ffffff;fill-opacity:1;fill-rule:nonzero;stroke:none"
             id="path3528" /></g><g
           id="g3530"
           transform="translate(7146.6011,7165.167)"><path
             d="m 0,0 -2.191,0 c -0.233,0 -0.458,-0.081 -0.638,-0.229 l -4.963,-4.108 0,3.337 c 0,0.553 -0.448,1 -1,1 l -1.807,0 c -0.552,0 -1,-0.447 -1,-1 l 0,-10.467 c 0,-0.553 0.448,-1 1,-1 l 1.807,0 c 0.552,0 1,0.447 1,1 l 0,3.076 0.334,0.276 4.74,-4.108 c 0.181,-0.157 0.414,-0.244 0.655,-0.244 l 2.346,0 c 0.417,0 0.79,0.259 0.936,0.649 0.146,0.39 0.035,0.831 -0.279,1.104 l -5.458,4.767 5.147,4.17 c 0.329,0.266 0.455,0.712 0.313,1.111 C 0.801,-0.267 0.423,0 0,0 m 0,-1 -6.071,-4.919 6.354,-5.548 -2.346,0 -5.377,4.66 -1.352,-1.111 0,-3.549 -1.807,0 0,10.467 1.807,0 0,-5.462 L -2.191,-1 0,-1"
             style="fill:#333333;fill-opacity:1;fill-rule:nonzero;stroke:none"
             id="path3532" /></g><g
           id="g3534"
           transform="translate(7161.5942,7153.0098)"><path
             d="m 0,0 c -1.005,0 -1.923,0.074 -2.731,0.22 -0.803,0.144 -1.63,0.361 -2.461,0.642 -0.203,0.069 -0.34,0.259 -0.34,0.474 l 0,1.743 c 0,0.277 0.224,0.501 0.501,0.501 l 0.128,0 c 0.095,0 0.188,-0.027 0.269,-0.079 0.647,-0.411 1.402,-0.733 2.241,-0.955 0.861,-0.228 1.674,-0.344 2.412,-0.344 1.034,0 1.836,0.144 2.384,0.429 0.598,0.309 0.666,0.633 0.666,0.849 0,0.4 -0.136,0.548 -0.242,0.625 C 2.664,4.228 2.331,4.398 1.682,4.529 1.237,4.62 0.757,4.696 0.238,4.757 -0.3,4.816 -0.871,4.897 -1.474,4.99 c -1.289,0.211 -2.271,0.585 -2.92,1.114 -0.701,0.578 -1.055,1.333 -1.055,2.247 0,1.065 0.569,1.935 1.692,2.587 1.036,0.604 2.353,0.91 3.912,0.91 0.978,0 1.892,-0.075 2.716,-0.219 0.817,-0.146 1.555,-0.325 2.19,-0.54 0.204,-0.068 0.341,-0.259 0.341,-0.474 l 0,-1.646 c 0,-0.277 -0.224,-0.5 -0.501,-0.5 l -0.128,0 C 4.676,8.469 4.581,8.498 4.498,8.552 4.029,8.859 3.392,9.12 2.608,9.327 1.814,9.538 0.984,9.644 0.145,9.644 c -0.883,0 -1.59,-0.137 -2.099,-0.406 -0.55,-0.29 -0.614,-0.567 -0.614,-0.751 0,-0.379 0.151,-0.549 0.262,-0.649 C -2.152,7.71 -1.801,7.525 -1,7.383 -0.618,7.318 -0.07,7.24 0.639,7.149 1.374,7.05 1.994,6.955 2.499,6.852 3.582,6.632 4.424,6.283 4.999,5.817 5.629,5.301 5.95,4.581 5.95,3.677 5.95,3.175 5.799,2.679 5.503,2.205 5.22,1.745 4.816,1.349 4.308,1.032 3.783,0.707 3.164,0.451 2.467,0.269 1.787,0.091 0.958,0 0,0"
             style="fill:#ffffff;fill-opacity:1;fill-rule:nonzero;stroke:none"
             id="path3536" /></g><g
           id="g3538"
           transform="translate(7161.7485,7165.3564)"><path
             d="m 0,0 c -1.649,0 -3.05,-0.328 -4.164,-0.977 -1.602,-0.93 -1.939,-2.155 -1.939,-3.018 0,-1.056 0.428,-1.966 1.235,-2.632 0.733,-0.596 1.763,-0.994 3.154,-1.223 0.61,-0.094 1.193,-0.174 1.742,-0.238 0.505,-0.058 0.974,-0.132 1.396,-0.219 0.596,-0.12 0.851,-0.261 0.951,-0.336 0.016,-0.011 0.04,-0.089 0.04,-0.223 0,-0.055 0,-0.201 -0.396,-0.406 -0.472,-0.244 -1.217,-0.373 -2.155,-0.373 -0.697,0 -1.466,0.11 -2.282,0.327 -0.795,0.211 -1.503,0.511 -2.102,0.894 -0.161,0.102 -0.347,0.156 -0.538,0.156 l -0.128,0 c -0.552,0 -1,-0.447 -1,-1 l 0,-1.742 c 0,-0.428 0.273,-0.808 0.678,-0.946 0.86,-0.293 1.712,-0.517 2.533,-0.664 0.833,-0.15 1.782,-0.226 2.82,-0.226 1.013,0 1.862,0.094 2.595,0.286 0.743,0.194 1.407,0.469 1.975,0.82 0.577,0.357 1.034,0.807 1.362,1.338 0.343,0.552 0.518,1.136 0.518,1.733 0,1.047 -0.392,1.92 -1.134,2.526 -0.649,0.526 -1.536,0.898 -2.715,1.138 -0.497,0.1 -1.115,0.198 -1.894,0.302 -0.724,0.094 -1.255,0.17 -1.626,0.232 -0.79,0.141 -1.023,0.313 -1.062,0.346 -0.034,0.029 -0.087,0.073 -0.087,0.266 0,0.12 0.289,0.278 0.347,0.308 0.438,0.232 1.066,0.349 1.867,0.349 0.791,0 1.576,-0.101 2.334,-0.3 0.733,-0.194 1.321,-0.434 1.747,-0.712 0.162,-0.106 0.353,-0.163 0.547,-0.163 l 0.129,0 c 0.552,0 1,0.447 1,1 l 0,1.646 c 0,0.429 -0.274,0.81 -0.682,0.948 -0.662,0.222 -1.424,0.41 -2.264,0.557 C 1.958,-0.076 1.015,0 0,0 m 0,-1 c 0.956,0 1.832,-0.069 2.63,-0.211 0.797,-0.14 1.502,-0.313 2.118,-0.52 l 0,-1.646 -0.129,0 c -0.516,0.338 -1.197,0.619 -2.04,0.842 -0.843,0.222 -1.705,0.333 -2.588,0.333 -0.968,0 -1.745,-0.153 -2.333,-0.464 -0.587,-0.309 -0.881,-0.708 -0.881,-1.193 0,-0.437 0.147,-0.779 0.439,-1.028 0.292,-0.249 0.806,-0.438 1.542,-0.569 0.39,-0.066 0.945,-0.146 1.662,-0.238 0.718,-0.096 1.328,-0.191 1.826,-0.29 1.009,-0.206 1.771,-0.519 2.282,-0.934 0.512,-0.417 0.767,-1 0.767,-1.751 0,-0.407 -0.123,-0.811 -0.369,-1.208 -0.247,-0.399 -0.593,-0.737 -1.037,-1.013 -0.487,-0.3 -1.055,-0.534 -1.702,-0.703 -0.648,-0.17 -1.429,-0.253 -2.342,-0.253 -0.98,0 -1.861,0.07 -2.643,0.21 -0.782,0.141 -1.578,0.351 -2.388,0.626 l 0,1.742 0.128,0 c 0.688,-0.438 1.483,-0.778 2.384,-1.017 0.9,-0.238 1.746,-0.36 2.538,-0.36 1.119,0 1.991,0.163 2.615,0.485 0.624,0.323 0.936,0.754 0.936,1.294 0,0.465 -0.148,0.806 -0.443,1.026 -0.296,0.22 -0.744,0.392 -1.347,0.513 -0.456,0.094 -0.951,0.171 -1.482,0.232 -0.534,0.062 -1.098,0.139 -1.695,0.233 -1.205,0.197 -2.098,0.534 -2.679,1.007 -0.581,0.478 -0.872,1.096 -0.872,1.86 0,0.877 0.481,1.596 1.442,2.154 C -2.699,-1.281 -1.479,-1 0,-1"
             style="fill:#333333;fill-opacity:1;fill-rule:nonzero;stroke:none"
             id="path3540" /></g><g
           id="g3542"
           transform="translate(7175.6265,7153.1992)"><path
             d="m 0,0 -1.808,0 c -0.276,0 -0.5,0.224 -0.5,0.5 l 0,8.729 -4.355,0 c -0.277,0 -0.501,0.223 -0.501,0.5 l 0,1.24 c 0,0.276 0.224,0.5 0.501,0.5 l 11.52,0 c 0.278,0 0.501,-0.224 0.501,-0.5 l 0,-1.24 c 0,-0.277 -0.223,-0.5 -0.501,-0.5 L 0.5,9.229 0.5,0.5 C 0.5,0.224 0.277,0 0,0"
             style="fill:#ffffff;fill-opacity:1;fill-rule:nonzero;stroke:none"
             id="path3544" /></g><g
           id="g3546"
           transform="translate(7180.4829,7165.167)"><path
             d="m 0,0 -11.521,0 c -0.552,0 -1,-0.447 -1,-1 l 0,-1.237 c 0,-0.553 0.448,-1 1,-1 l 3.856,0 0,-8.23 c 0,-0.553 0.448,-1 1,-1 l 1.808,0 c 0.552,0 1,0.447 1,1 l 0,8.23 3.857,0 c 0.552,0 1,0.447 1,1 L 1,-1 C 1,-0.447 0.552,0 0,0 m 0,-1 0,-1.237 -4.857,0 0,-9.23 -1.808,0 0,9.23 -4.856,0 0,1.237 L 0,-1"
             style="fill:#333333;fill-opacity:1;fill-rule:nonzero;stroke:none"
             id="path3548" /></g><g
           id="g3550"
           transform="translate(7189.2729,7152.9824)"><path
             d="m 0,0 c -0.908,0 -1.679,0.091 -2.36,0.277 -0.69,0.191 -1.288,0.478 -1.772,0.854 -0.562,0.44 -0.974,0.98 -1.22,1.602 -0.238,0.598 -0.36,1.334 -0.36,2.189 l 0,6.262 c 0,0.277 0.224,0.501 0.501,0.501 l 1.807,0 c 0.277,0 0.501,-0.224 0.501,-0.501 l 0,-6.332 c 0,-0.517 0.043,-0.92 0.128,-1.198 C -2.697,3.397 -2.563,3.16 -2.372,2.944 -2.163,2.711 -1.87,2.527 -1.497,2.401 -1.094,2.265 -0.589,2.196 0,2.196 c 0.593,0 1.1,0.069 1.505,0.202 0.375,0.123 0.662,0.303 0.879,0.546 0.189,0.214 0.321,0.452 0.402,0.729 0.087,0.302 0.13,0.686 0.13,1.143 l 0,6.368 c 0,0.277 0.223,0.501 0.501,0.501 l 1.807,0 c 0.277,0 0.5,-0.224 0.5,-0.501 l 0,-6.262 C 5.724,4.107 5.604,3.379 5.366,2.759 5.118,2.107 4.705,1.56 4.136,1.127 3.617,0.734 3.007,0.442 2.318,0.263 1.661,0.089 0.879,0 0,0"
             style="fill:#ffffff;fill-opacity:1;fill-rule:nonzero;stroke:none"
             id="path3552" /></g><g
           id="g3554"
           transform="translate(7194.4961,7165.167)"><path
             d="m 0,0 -1.808,0 c -0.552,0 -1,-0.447 -1,-1 l 0,-6.368 c 0,-0.412 -0.037,-0.751 -0.111,-1.006 -0.059,-0.199 -0.156,-0.375 -0.296,-0.535 -0.155,-0.174 -0.372,-0.307 -0.662,-0.404 -0.352,-0.117 -0.806,-0.176 -1.345,-0.176 -0.534,0 -0.985,0.06 -1.339,0.179 -0.287,0.097 -0.51,0.233 -0.661,0.403 -0.142,0.161 -0.24,0.333 -0.299,0.524 -0.048,0.158 -0.106,0.472 -0.106,1.05 l 0,6.333 c 0,0.553 -0.448,1 -1,1 l -1.808,0 c -0.552,0 -1,-0.447 -1,-1 l 0,-6.264 c 0,-0.916 0.133,-1.715 0.395,-2.373 0.282,-0.708 0.746,-1.317 1.378,-1.81 0.532,-0.415 1.187,-0.733 1.946,-0.943 0.726,-0.198 1.54,-0.294 2.494,-0.294 0.935,0 1.735,0.091 2.446,0.279 0.745,0.193 1.416,0.513 1.992,0.95 0.644,0.488 1.113,1.111 1.394,1.852 C 0.869,-8.931 1,-8.143 1,-7.264 L 1,-1 C 1,-0.447 0.552,0 0,0 m 0,-1 0,-6.264 c 0,-0.758 -0.108,-1.421 -0.325,-1.984 -0.215,-0.567 -0.57,-1.036 -1.063,-1.41 -0.469,-0.356 -1.016,-0.617 -1.643,-0.78 -0.627,-0.166 -1.357,-0.246 -2.191,-0.246 -0.853,0 -1.594,0.085 -2.228,0.258 -0.633,0.175 -1.165,0.43 -1.597,0.768 -0.493,0.384 -0.848,0.847 -1.064,1.391 -0.216,0.543 -0.324,1.211 -0.324,2.003 l 0,6.264 1.808,0 0,-6.333 c 0,-0.567 0.05,-1.015 0.15,-1.344 0.101,-0.327 0.269,-0.624 0.507,-0.893 0.268,-0.302 0.632,-0.533 1.091,-0.688 0.459,-0.154 1.012,-0.231 1.657,-0.231 0.652,0 1.204,0.076 1.661,0.227 0.457,0.153 0.821,0.382 1.096,0.692 0.237,0.269 0.406,0.574 0.507,0.918 0.1,0.345 0.15,0.773 0.15,1.284 L -1.808,-1 0,-1"
             style="fill:#333333;fill-opacity:1;fill-rule:nonzero;stroke:none"
             id="path3556" /></g><g
           id="g3558"
           transform="translate(7199.4844,7153.1992)"><path
             d="m 0,0 -1.81,0 c -0.277,0 -0.5,0.224 -0.5,0.5 l 0,10.469 c 0,0.276 0.223,0.5 0.5,0.5 l 8.684,0 c 0.276,0 0.5,-0.224 0.5,-0.5 l 0,-1.24 c 0,-0.277 -0.224,-0.5 -0.5,-0.5 l -6.374,0 0,-1.95 5.406,0 c 0.277,0 0.5,-0.223 0.5,-0.501 l 0,-1.238 c 0,-0.277 -0.223,-0.5 -0.5,-0.5 L 0.5,5.04 0.5,0.5 C 0.5,0.224 0.277,0 0,0"
             style="fill:#ffffff;fill-opacity:1;fill-rule:nonzero;stroke:none"
             id="path3560" /></g><g
           id="g3562"
           transform="translate(7206.3584,7165.167)"><path
             d="m 0,0 -8.683,0 c -0.552,0 -1,-0.447 -1,-1 l 0,-10.467 c 0,-0.553 0.448,-1 1,-1 l 1.808,0 c 0.552,0 1,0.447 1,1 l 0,4.04 4.907,0 c 0.553,0 1,0.448 1,1 l 0,1.238 c 0,0.552 -0.447,1 -1,1 l -4.907,0 0,0.952 5.875,0 c 0.553,0 1,0.447 1,1 L 1,-1 C 1,-0.447 0.553,0 0,0 m 0,-1 0,-1.237 -6.875,0 0,-2.952 5.907,0 0,-1.238 -5.907,0 0,-5.04 -1.808,0 0,10.467 L 0,-1"
             style="fill:#333333;fill-opacity:1;fill-rule:nonzero;stroke:none"
             id="path3564" /></g><g
           id="g3566"
           transform="translate(7211.0684,7153.1992)"><path
             d="m 0,0 -1.807,0 c -0.277,0 -0.501,0.224 -0.501,0.5 l 0,10.469 c 0,0.276 0.224,0.5 0.501,0.5 l 8.681,0 c 0.277,0 0.501,-0.224 0.501,-0.5 l 0,-1.24 c 0,-0.277 -0.224,-0.5 -0.501,-0.5 l -6.373,0 0,-1.95 5.407,0 c 0.278,0 0.501,-0.223 0.501,-0.501 l 0,-1.238 c 0,-0.277 -0.223,-0.5 -0.501,-0.5 l -5.407,0 0,-4.54 C 0.501,0.224 0.277,0 0,0"
             style="fill:#ffffff;fill-opacity:1;fill-rule:nonzero;stroke:none"
             id="path3568" /></g><g
           id="g3570"
           transform="translate(7217.9434,7165.167)"><path
             d="m 0,0 -8.682,0 c -0.552,0 -1,-0.447 -1,-1 l 0,-10.467 c 0,-0.553 0.448,-1 1,-1 l 1.808,0 c 0.553,0 1,0.447 1,1 l 0,4.04 4.908,0 c 0.553,0 1,0.448 1,1 l 0,1.238 c 0,0.552 -0.447,1 -1,1 l -4.908,0 0,0.952 5.874,0 c 0.553,0 1,0.447 1,1 L 1,-1 C 1,-0.447 0.553,0 0,0 m 0,-1 0,-1.237 -6.874,0 0,-2.952 5.908,0 0,-1.238 -5.908,0 0,-5.04 -1.808,0 0,10.467 L 0,-1"
             style="fill:#333333;fill-opacity:1;fill-rule:nonzero;stroke:none"
             id="path3572" /></g><g
           id="g3574"
           transform="translate(7232.6924,7153.0098)"><path
             d="m 0,0 c -1.006,0 -1.924,0.074 -2.734,0.22 -0.8,0.144 -1.628,0.359 -2.459,0.642 -0.203,0.069 -0.339,0.259 -0.339,0.474 l 0,1.743 c 0,0.277 0.223,0.501 0.5,0.501 l 0.127,0 c 0.094,0 0.187,-0.027 0.268,-0.079 0.65,-0.411 1.405,-0.733 2.241,-0.955 0.863,-0.228 1.676,-0.344 2.412,-0.344 1.034,0 1.837,0.144 2.386,0.429 C 3,2.94 3.068,3.264 3.068,3.48 3.068,3.88 2.93,4.026 2.826,4.105 2.661,4.228 2.328,4.401 1.681,4.529 1.234,4.62 0.754,4.696 0.235,4.757 -0.3,4.816 -0.871,4.897 -1.475,4.99 c -1.289,0.211 -2.27,0.585 -2.92,1.114 -0.701,0.574 -1.056,1.331 -1.056,2.247 0,1.065 0.57,1.935 1.693,2.587 1.034,0.604 2.352,0.91 3.912,0.91 0.981,0 1.893,-0.075 2.714,-0.219 0.817,-0.144 1.553,-0.325 2.192,-0.54 0.203,-0.068 0.341,-0.259 0.341,-0.474 l 0,-1.646 c 0,-0.277 -0.223,-0.5 -0.501,-0.5 l -0.128,0 C 4.676,8.469 4.58,8.498 4.497,8.552 4.028,8.859 3.391,9.122 2.605,9.327 1.813,9.538 0.986,9.644 0.145,9.644 c -0.883,0 -1.591,-0.137 -2.1,-0.406 -0.55,-0.29 -0.614,-0.567 -0.614,-0.751 0,-0.379 0.151,-0.549 0.262,-0.649 C -2.153,7.71 -1.804,7.525 -1.001,7.383 -0.621,7.318 -0.073,7.24 0.639,7.149 1.371,7.05 1.991,6.955 2.498,6.852 3.581,6.632 4.423,6.283 4.998,5.817 5.627,5.303 5.947,4.583 5.947,3.677 5.947,3.171 5.798,2.676 5.503,2.205 5.222,1.748 4.818,1.353 4.308,1.032 3.777,0.707 3.159,0.451 2.467,0.269 1.776,0.089 0.968,0 0,0"
             style="fill:#ffffff;fill-opacity:1;fill-rule:nonzero;stroke:none"
             id="path3576" /></g><g
           id="g3578"
           transform="translate(7232.8467,7165.3564)"><path
             d="m 0,0 c -1.65,0 -3.052,-0.328 -4.164,-0.977 -1.605,-0.93 -1.941,-2.155 -1.941,-3.018 0,-1.058 0.428,-1.969 1.238,-2.634 0.731,-0.594 1.762,-0.992 3.154,-1.221 0.609,-0.095 1.192,-0.175 1.738,-0.238 0.505,-0.058 0.976,-0.132 1.398,-0.219 0.596,-0.12 0.85,-0.26 0.949,-0.335 0.022,-0.015 0.042,-0.098 0.042,-0.224 0,-0.055 0,-0.2 -0.396,-0.406 -0.472,-0.244 -1.218,-0.373 -2.156,-0.373 -0.697,0 -1.466,0.11 -2.283,0.327 -0.793,0.211 -1.5,0.511 -2.101,0.894 -0.162,0.102 -0.347,0.156 -0.538,0.156 l -0.127,0 c -0.552,0 -1,-0.447 -1,-1 l 0,-1.742 c 0,-0.428 0.273,-0.808 0.678,-0.946 0.86,-0.293 1.712,-0.517 2.532,-0.664 0.835,-0.15 1.785,-0.226 2.822,-0.226 1.012,0 1.861,0.094 2.594,0.285 0.74,0.194 1.404,0.469 1.973,0.82 0.58,0.36 1.038,0.81 1.364,1.34 0.342,0.548 0.517,1.132 0.517,1.732 0,1.048 -0.392,1.922 -1.134,2.526 -0.646,0.526 -1.534,0.898 -2.715,1.138 -0.499,0.1 -1.117,0.198 -1.891,0.302 -0.725,0.094 -1.256,0.169 -1.626,0.232 -0.792,0.141 -1.025,0.312 -1.063,0.345 -0.035,0.03 -0.088,0.074 -0.088,0.267 0,0.12 0.288,0.277 0.346,0.308 0.44,0.232 1.066,0.349 1.867,0.349 0.792,0 1.577,-0.101 2.333,-0.3 0.734,-0.193 1.323,-0.434 1.749,-0.712 0.163,-0.106 0.353,-0.163 0.547,-0.163 l 0.128,0 c 0.553,0 1,0.447 1,1 l 0,1.646 c 0,0.429 -0.274,0.811 -0.682,0.948 C 4.399,-0.56 3.637,-0.372 2.799,-0.226 1.957,-0.076 1.014,0 0,0 m 0,-1 c 0.954,0 1.83,-0.069 2.627,-0.211 0.799,-0.14 1.503,-0.313 2.119,-0.52 l 0,-1.646 -0.128,0 c -0.517,0.338 -1.197,0.619 -2.041,0.842 -0.842,0.222 -1.707,0.333 -2.588,0.333 -0.968,0 -1.744,-0.153 -2.332,-0.464 -0.587,-0.309 -0.881,-0.708 -0.881,-1.193 0,-0.437 0.147,-0.779 0.439,-1.028 0.292,-0.249 0.806,-0.438 1.543,-0.569 0.388,-0.066 0.942,-0.146 1.662,-0.238 0.717,-0.096 1.325,-0.191 1.824,-0.29 1.011,-0.206 1.773,-0.519 2.283,-0.934 0.512,-0.417 0.766,-1 0.766,-1.751 0,-0.407 -0.121,-0.811 -0.368,-1.208 -0.246,-0.399 -0.594,-0.737 -1.037,-1.013 -0.489,-0.3 -1.054,-0.534 -1.702,-0.703 -0.649,-0.17 -1.428,-0.253 -2.341,-0.253 -0.982,0 -1.861,0.07 -2.645,0.21 -0.782,0.141 -1.578,0.351 -2.387,0.626 l 0,1.742 0.127,0 c 0.69,-0.438 1.484,-0.778 2.383,-1.017 0.901,-0.238 1.748,-0.36 2.539,-0.36 1.119,0 1.991,0.163 2.616,0.485 0.624,0.323 0.936,0.754 0.936,1.294 0,0.465 -0.148,0.806 -0.444,1.026 -0.295,0.22 -0.742,0.392 -1.346,0.513 -0.457,0.094 -0.952,0.171 -1.484,0.232 -0.534,0.062 -1.096,0.139 -1.692,0.233 -1.206,0.197 -2.099,0.534 -2.68,1.007 -0.583,0.478 -0.873,1.096 -0.873,1.86 0,0.877 0.481,1.596 1.444,2.154 C -2.7,-1.281 -1.48,-1 0,-1"
             style="fill:#333333;fill-opacity:1;fill-rule:nonzero;stroke:none"
             id="path3580" /></g><g
           id="g3582"
           transform="translate(7246.8965,7152.9834)"><path
             d="m 0,0 c -0.896,0 -1.688,0.093 -2.356,0.275 -0.701,0.193 -1.296,0.48 -1.779,0.855 -0.56,0.44 -0.969,0.978 -1.219,1.603 -0.237,0.603 -0.359,1.337 -0.359,2.188 l 0,6.262 c 0,0.275 0.226,0.501 0.5,0.501 l 1.807,0 c 0.275,0 0.501,-0.226 0.501,-0.501 l 0,-6.332 c 0,-0.516 0.044,-0.919 0.129,-1.197 C -2.698,3.397 -2.562,3.16 -2.371,2.942 -2.166,2.709 -1.87,2.526 -1.498,2.4 -1.095,2.264 -0.59,2.195 0,2.195 c 0.594,0 1.102,0.067 1.505,0.201 0.37,0.125 0.666,0.308 0.877,0.548 0.19,0.216 0.321,0.452 0.399,0.727 0.089,0.302 0.133,0.687 0.133,1.144 l 0,6.368 c 0,0.275 0.226,0.501 0.501,0.501 l 1.809,0 c 0.275,0 0.501,-0.226 0.501,-0.501 l 0,-6.262 C 5.725,4.104 5.603,3.375 5.362,2.756 5.118,2.108 4.704,1.558 4.137,1.128 3.615,0.732 3.003,0.44 2.318,0.261 1.656,0.087 0.896,0 0,0"
             style="fill:#ffffff;fill-opacity:1;fill-rule:nonzero;stroke:none"
             id="path3584" /></g><g
           id="g3586"
           transform="translate(7252.1191,7165.167)"><path
             d="m 0,0 -1.808,0 c -0.552,0 -1,-0.447 -1,-1 l 0,-6.368 c 0,-0.41 -0.038,-0.748 -0.112,-1.005 -0.059,-0.202 -0.156,-0.378 -0.295,-0.535 -0.155,-0.176 -0.371,-0.308 -0.663,-0.405 -0.351,-0.117 -0.804,-0.176 -1.344,-0.176 -0.534,0 -0.985,0.06 -1.34,0.179 -0.287,0.097 -0.508,0.233 -0.659,0.402 -0.143,0.164 -0.243,0.336 -0.3,0.525 -0.049,0.157 -0.107,0.47 -0.107,1.05 l 0,6.333 c 0,0.553 -0.447,1 -1,1 l -1.808,0 c -0.552,0 -1,-0.447 -1,-1 l 0,-6.264 c 0,-0.912 0.133,-1.71 0.395,-2.371 0.281,-0.71 0.745,-1.319 1.379,-1.812 0.532,-0.416 1.188,-0.734 1.947,-0.943 0.713,-0.195 1.551,-0.294 2.493,-0.294 0.934,0 1.734,0.091 2.446,0.279 0.746,0.194 1.417,0.514 1.992,0.95 0.641,0.486 1.111,1.109 1.393,1.851 C 0.868,-8.932 1,-8.143 1,-7.264 L 1,-1 C 1,-0.447 0.553,0 0,0 m 0,-1 0,-6.264 c 0,-0.758 -0.108,-1.421 -0.325,-1.984 -0.216,-0.567 -0.57,-1.036 -1.064,-1.41 -0.468,-0.356 -1.016,-0.617 -1.641,-0.78 -0.628,-0.166 -1.359,-0.246 -2.192,-0.246 -0.852,0 -1.595,0.085 -2.227,0.258 -0.635,0.175 -1.166,0.43 -1.599,0.768 -0.493,0.384 -0.848,0.847 -1.063,1.391 -0.215,0.543 -0.325,1.211 -0.325,2.003 l 0,6.264 1.808,0 0,-6.333 c 0,-0.567 0.05,-1.015 0.15,-1.344 0.101,-0.327 0.271,-0.624 0.508,-0.893 0.267,-0.302 0.631,-0.533 1.09,-0.688 0.46,-0.154 1.013,-0.231 1.658,-0.231 0.651,0 1.205,0.076 1.66,0.227 0.458,0.153 0.824,0.382 1.096,0.692 0.238,0.269 0.405,0.574 0.506,0.918 0.101,0.345 0.152,0.773 0.152,1.284 L -1.808,-1 0,-1"
             style="fill:#333333;fill-opacity:1;fill-rule:nonzero;stroke:none"
             id="path3588" /></g><g
           id="g3590"
           transform="translate(7258.7188,7159.2891)"><path
             d="M 0,0 1.023,0 C 1.71,0 2.271,0.048 2.698,0.142 3.075,0.222 3.384,0.353 3.612,0.529 3.834,0.703 3.989,0.881 4.07,1.056 4.159,1.237 4.203,1.445 4.203,1.68 4.203,1.948 4.147,2.173 4.031,2.363 3.917,2.546 3.73,2.705 3.485,2.83 3.237,2.952 2.947,3.041 2.626,3.095 2.271,3.153 1.821,3.184 1.289,3.184 L 0,3.184 0,0 z m -0.5,-6.089 -1.808,0 c -0.275,0 -0.499,0.224 -0.499,0.499 l 0,10.468 c 0,0.275 0.224,0.499 0.499,0.499 l 3.688,0 C 2.226,5.377 2.955,5.321 3.544,5.211 4.151,5.098 4.705,4.917 5.188,4.67 5.778,4.363 6.24,3.976 6.568,3.514 6.91,3.03 7.084,2.426 7.084,1.715 7.084,1.172 6.96,0.659 6.711,0.191 6.469,-0.267 6.127,-0.667 5.693,-0.999 5.18,-1.396 4.563,-1.701 3.865,-1.898 3.175,-2.093 2.34,-2.187 1.308,-2.187 L 0,-2.187 0,-5.59 c 0,-0.275 -0.225,-0.499 -0.5,-0.499"
             style="fill:#ffffff;fill-opacity:1;fill-rule:nonzero;stroke:none"
             id="path3592" /></g><g
           id="g3594"
           transform="translate(7259.2188,7161.9717)"><path
             d="m 0,0 0.789,0 c 0.51,0 0.933,-0.027 1.254,-0.081 0.275,-0.046 0.518,-0.12 0.72,-0.222 0.16,-0.081 0.278,-0.176 0.343,-0.283 0.065,-0.105 0.097,-0.242 0.097,-0.417 0,-0.159 -0.025,-0.289 -0.079,-0.398 C 3.09,-1.474 3.013,-1.597 2.8,-1.764 2.639,-1.888 2.397,-1.987 2.091,-2.054 1.701,-2.14 1.175,-2.183 0.524,-2.183 L 0,-2.183 0,0 z m 0.881,3.195 -3.689,0 c -0.551,0 -1,-0.447 -1,-1 l 0,-10.466 c 0,-0.553 0.449,-1 1,-1 l 1.808,0 c 0.553,0 1,0.447 1,1 l 0,2.902 0.808,0 c 1.083,0 1.963,0.1 2.692,0.306 0.763,0.217 1.436,0.549 2,0.986 0.488,0.375 0.877,0.831 1.152,1.353 0.286,0.534 0.432,1.126 0.432,1.756 0,0.818 -0.205,1.521 -0.609,2.09 C 6.1,1.65 5.576,2.091 4.918,2.431 4.395,2.698 3.797,2.896 3.137,3.02 2.512,3.138 1.773,3.195 0.881,3.195 M -1,-3.183 l 1.524,0 c 0.731,0 1.325,0.052 1.78,0.152 0.458,0.099 0.828,0.261 1.114,0.481 0.287,0.226 0.489,0.462 0.605,0.711 0.121,0.247 0.18,0.526 0.18,0.836 0,0.359 -0.081,0.674 -0.246,0.942 C 3.793,0.205 3.543,0.424 3.209,0.593 2.917,0.738 2.582,0.843 2.208,0.905 1.834,0.968 1.361,1 0.789,1 L -1,1 -1,-3.183 M 0.881,2.195 C 1.695,2.195 2.388,2.144 2.952,2.037 3.52,1.931 4.021,1.767 4.459,1.542 4.977,1.274 5.377,0.94 5.659,0.543 5.941,0.146 6.084,-0.357 6.084,-0.968 6.084,-1.432 5.979,-1.862 5.769,-2.257 5.559,-2.654 5.265,-2.997 4.889,-3.286 4.42,-3.648 3.865,-3.919 3.228,-4.101 2.589,-4.281 1.781,-4.369 0.808,-4.369 l -1.808,0 0,-3.902 -1.808,0 0,10.466 3.689,0"
             style="fill:#333333;fill-opacity:1;fill-rule:nonzero;stroke:none"
             id="path3596" /></g><g
           id="g3598"
           transform="translate(7270.835,7159.29)"><path
             d="M 0,0 1.023,0 C 1.715,0 2.279,0.046 2.698,0.138 3.074,0.221 3.384,0.352 3.612,0.527 3.834,0.702 3.989,0.881 4.07,1.055 4.16,1.239 4.201,1.44 4.201,1.68 4.201,1.947 4.146,2.172 4.029,2.362 3.915,2.547 3.736,2.701 3.483,2.827 3.234,2.95 2.945,3.041 2.626,3.093 2.279,3.151 1.829,3.181 1.287,3.181 L 0,3.181 0,0 z m -0.5,-6.09 -1.809,0 c -0.275,0 -0.5,0.224 -0.5,0.5 l 0,10.466 c 0,0.276 0.225,0.501 0.5,0.501 l 3.69,0 C 2.228,5.377 2.956,5.32 3.543,5.21 4.158,5.094 4.712,4.914 5.186,4.669 5.774,4.365 6.237,3.978 6.567,3.513 6.908,3.033 7.083,2.427 7.083,1.715 7.083,1.169 6.958,0.656 6.711,0.191 6.466,-0.27 6.121,-0.672 5.689,-1 5.184,-1.396 4.566,-1.7 3.863,-1.901 3.183,-2.094 2.346,-2.188 1.308,-2.188 L 0,-2.188 0,-5.59 c 0,-0.276 -0.224,-0.5 -0.5,-0.5"
             style="fill:#ffffff;fill-opacity:1;fill-rule:nonzero;stroke:none"
             id="path3600" /></g><g
           id="g3602"
           transform="translate(7271.335,7161.9717)"><path
             d="m 0,0 0.787,0 c 0.512,0 0.935,-0.027 1.256,-0.081 0.273,-0.046 0.516,-0.12 0.721,-0.222 0.159,-0.08 0.275,-0.176 0.341,-0.283 0.065,-0.105 0.097,-0.242 0.097,-0.417 0,-0.16 -0.025,-0.291 -0.078,-0.398 C 3.091,-1.474 3.014,-1.596 2.799,-1.765 2.639,-1.887 2.397,-1.987 2.091,-2.055 1.701,-2.14 1.173,-2.183 0.523,-2.183 L 0,-2.183 0,0 z m 0.88,3.195 -3.689,0 c -0.552,0 -1,-0.447 -1,-1 l 0,-10.466 c 0,-0.553 0.448,-1 1,-1 l 1.809,0 c 0.553,0 1,0.447 1,1 l 0,2.902 0.808,0 c 1.082,0 1.963,0.1 2.69,0.306 0.762,0.216 1.435,0.548 2.001,0.986 0.487,0.374 0.876,0.83 1.153,1.351 0.286,0.538 0.431,1.129 0.431,1.758 0,0.82 -0.205,1.523 -0.61,2.091 C 6.098,1.651 5.574,2.092 4.916,2.431 4.396,2.697 3.799,2.896 3.137,3.02 2.51,3.138 1.771,3.195 0.88,3.195 M -1,-3.183 l 1.523,0 c 0.732,0 1.325,0.052 1.782,0.152 0.455,0.099 0.827,0.261 1.113,0.481 0.286,0.226 0.489,0.462 0.605,0.711 0.121,0.247 0.179,0.526 0.179,0.836 0,0.359 -0.081,0.674 -0.246,0.942 C 3.792,0.205 3.543,0.424 3.208,0.593 2.915,0.738 2.582,0.843 2.208,0.905 1.834,0.968 1.36,1 0.787,1 L -1,1 -1,-3.183 M 0.88,2.195 C 1.695,2.195 2.387,2.144 2.952,2.037 3.519,1.931 4.021,1.767 4.458,1.542 4.977,1.274 5.376,0.94 5.658,0.543 5.941,0.146 6.083,-0.357 6.083,-0.968 6.083,-1.432 5.979,-1.862 5.769,-2.257 5.558,-2.654 5.264,-2.997 4.888,-3.286 4.419,-3.648 3.865,-3.919 3.226,-4.101 2.588,-4.281 1.781,-4.369 0.808,-4.369 l -1.808,0 0,-3.902 -1.809,0 0,10.466 3.689,0"
             style="fill:#333333;fill-opacity:1;fill-rule:nonzero;stroke:none"
             id="path3604" /></g><g
           id="g3606"
           transform="translate(7289.2402,7153.1992)"><path
             d="m 0,0 -8.598,0 c -0.276,0 -0.501,0.225 -0.501,0.501 l 0,10.466 c 0,0.276 0.225,0.501 0.501,0.501 l 1.807,0 c 0.276,0 0.501,-0.225 0.501,-0.501 l 0,-8.729 6.29,0 c 0.276,0 0.501,-0.224 0.501,-0.501 l 0,-1.236 C 0.501,0.225 0.276,0 0,0"
             style="fill:#ffffff;fill-opacity:1;fill-rule:nonzero;stroke:none"
             id="path3608" /></g><g
           id="g3610"
           transform="translate(7282.4492,7165.167)"><path
             d="m 0,0 -1.807,0 c -0.552,0 -1,-0.447 -1,-1 l 0,-10.467 c 0,-0.553 0.448,-1 1,-1 l 8.598,0 c 0.553,0 1,0.447 1,1 l 0,1.238 c 0,0.551 -0.447,1 -1,1 L 1,-9.229 1,-1 C 1,-0.447 0.553,0 0,0 m 0,-1 0,-9.229 6.791,0 0,-1.238 -8.598,0 0,10.467 L 0,-1"
             style="fill:#333333;fill-opacity:1;fill-rule:nonzero;stroke:none"
             id="path3612" /></g><g
           id="g3614"
           transform="translate(7297.7939,7153.2021)"><path
             d="m 0,0 -5.366,0 c -0.278,0 -0.5,0.223 -0.5,0.499 l 0,1.067 c 0,0.277 0.222,0.499 0.5,0.499 l 1.281,0 0,7.331 -1.281,0 c -0.278,0 -0.5,0.223 -0.5,0.5 l 0,1.07 c 0,0.276 0.222,0.499 0.5,0.499 l 5.366,0 c 0.277,0 0.5,-0.223 0.5,-0.499 l 0,-1.07 C 0.5,9.619 0.277,9.396 0,9.396 l -1.279,0 0,-7.331 1.279,0 c 0.277,0 0.5,-0.222 0.5,-0.499 l 0,-1.067 C 0.5,0.223 0.277,0 0,0"
             style="fill:#ffffff;fill-opacity:1;fill-rule:nonzero;stroke:none"
             id="path3616" /></g><g
           id="g3618"
           transform="translate(7297.7949,7165.167)"><path
             d="m 0,0 -5.368,0 c -0.552,0 -1,-0.447 -1,-1 l 0,-1.068 c 0,-0.553 0.448,-1 1,-1 l 0.781,0 0,-6.331 -0.781,0 c -0.552,0 -1,-0.448 -1,-1 l 0,-1.068 c 0,-0.552 0.448,-1 1,-1 l 5.368,0 c 0.553,0 1,0.448 1,1 l 0,1.068 c 0,0.552 -0.447,1 -1,1 l -0.779,0 0,6.331 0.779,0 c 0.553,0 1,0.447 1,1 L 1,-1 C 1,-0.447 0.553,0 0,0 m 0,-1 0,-1.068 -1.779,0 0,-8.331 1.779,0 0,-1.068 -5.368,0 0,1.068 1.781,0 0,8.331 -1.781,0 0,1.068 L 0,-1"
             style="fill:#333333;fill-opacity:1;fill-rule:nonzero;stroke:none"
             id="path3620" /></g><g
           id="g3622"
           transform="translate(7310.6699,7153.1992)"><path
             d="M 0,0 -8.955,0 C -9.23,0 -9.456,0.226 -9.456,0.5 l 0,10.469 c 0,0.275 0.226,0.5 0.501,0.5 l 8.955,0 c 0.275,0 0.5,-0.225 0.5,-0.5 L 0.5,9.73 C 0.5,9.456 0.275,9.23 0,9.23 l -6.648,0 0,-1.869 6.648,0 c 0.275,0 0.5,-0.225 0.5,-0.5 l 0,-1.236 C 0.5,5.35 0.275,5.125 0,5.125 l -6.648,0 0,-2.887 6.648,0 c 0.275,0 0.5,-0.224 0.5,-0.5 L 0.5,0.5 C 0.5,0.226 0.275,0 0,0"
             style="fill:#ffffff;fill-opacity:1;fill-rule:nonzero;stroke:none"
             id="path3624" /></g><g
           id="g3626"
           transform="translate(7310.6689,7165.167)"><path
             d="m 0,0 -8.955,0 c -0.553,0 -1,-0.447 -1,-1 l 0,-10.467 c 0,-0.553 0.447,-1 1,-1 l 8.955,0 c 0.553,0 1,0.447 1,1 l 0,1.238 c 0,0.552 -0.447,1 -1,1 l -6.147,0 0,1.887 6.147,0 c 0.553,0 1,0.447 1,1 l 0,1.236 c 0,0.552 -0.447,1 -1,1 l -6.147,0 0,0.869 6.147,0 c 0.553,0 1,0.447 1,1 L 1,-1 C 1,-0.447 0.553,0 0,0 m 0,-1 0,-1.237 -7.147,0 0,-2.869 7.147,0 0,-1.236 -7.147,0 0,-3.887 7.147,0 0,-1.238 -8.955,0 0,10.467 L 0,-1"
             style="fill:#333333;fill-opacity:1;fill-rule:nonzero;stroke:none"
             id="path3628" /></g><g
           id="g3630"
           transform="translate(7316.6836,7159.5215)"><path
             d="M 0,0 1.327,0 C 1.87,0 2.344,0.037 2.734,0.108 3.085,0.171 3.384,0.288 3.622,0.457 3.829,0.605 3.977,0.769 4.073,0.954 4.167,1.136 4.215,1.386 4.215,1.699 4.215,1.91 4.169,2.09 4.077,2.244 3.991,2.391 3.831,2.524 3.604,2.639 3.386,2.752 3.123,2.829 2.822,2.875 2.478,2.925 2.075,2.952 1.628,2.952 L 0,2.952 0,0 z m 8.941,-6.32 -2.346,0 c -0.125,0 -0.246,0.046 -0.338,0.13 L 1.854,-2.159 0,-2.159 0,-5.821 C 0,-6.097 -0.224,-6.32 -0.499,-6.32 l -1.807,0 c -0.275,0 -0.499,0.223 -0.499,0.499 l 0,10.467 c 0,0.275 0.224,0.499 0.499,0.499 l 3.807,0 C 2.338,5.145 3.054,5.103 3.628,5.017 4.221,4.93 4.769,4.767 5.25,4.535 5.81,4.266 6.259,3.91 6.585,3.482 6.927,3.035 7.103,2.468 7.103,1.8 7.103,0.912 6.808,0.156 6.224,-0.445 5.839,-0.84 5.354,-1.169 4.778,-1.426 L 9.275,-5.449 C 9.431,-5.587 9.482,-5.807 9.409,-5.998 9.334,-6.192 9.148,-6.32 8.941,-6.32"
             style="fill:#ffffff;fill-opacity:1;fill-rule:nonzero;stroke:none"
             id="path3632" /></g><g
           id="g3634"
           transform="translate(7317.1846,7161.9717)"><path
             d="M 0,0 1.127,0 C 1.559,0 1.938,-0.023 2.253,-0.069 2.496,-0.107 2.708,-0.17 2.873,-0.255 3.074,-0.357 3.133,-0.438 3.146,-0.46 3.174,-0.508 3.213,-0.592 3.213,-0.751 3.213,-1.055 3.159,-1.206 3.126,-1.27 3.069,-1.38 2.971,-1.485 2.827,-1.588 2.653,-1.711 2.424,-1.8 2.147,-1.85 1.782,-1.917 1.339,-1.95 0.826,-1.95 L 0,-1.95 0,0 z m 1,3.195 -3.807,0 c -0.551,0 -1,-0.447 -1,-1 l 0,-10.466 c 0,-0.553 0.449,-1 1,-1 l 1.807,0 c 0.553,0 1,0.447 1,1 l 0,3.161 1.159,0 4.261,-3.899 c 0.184,-0.169 0.425,-0.262 0.675,-0.262 l 2.345,0 c 0.414,0 0.787,0.255 0.935,0.642 0.147,0.388 0.041,0.826 -0.268,1.103 l -3.959,3.543 c 0.352,0.215 0.664,0.462 0.933,0.739 0.678,0.701 1.021,1.573 1.021,2.594 0,0.778 -0.209,1.447 -0.622,1.987 C 6.105,1.827 5.597,2.229 4.967,2.533 4.438,2.788 3.844,2.966 3.2,3.061 2.604,3.149 1.862,3.195 1,3.195 m -2,-6.145 1.826,0 c 0.571,0 1.071,0.038 1.497,0.116 0.426,0.076 0.787,0.221 1.086,0.433 0.275,0.196 0.476,0.421 0.608,0.676 0.13,0.256 0.196,0.581 0.196,0.974 0,0.302 -0.069,0.567 -0.206,0.8 C 3.87,0.28 3.645,0.475 3.328,0.636 3.066,0.77 2.755,0.864 2.397,0.92 2.037,0.973 1.615,1 1.127,1 L -1,1 -1,-2.95 M 1,2.195 C 1.821,2.195 2.506,2.153 3.054,2.071 3.603,1.99 4.095,1.844 4.532,1.633 5.026,1.395 5.408,1.093 5.686,0.729 5.964,0.365 6.102,-0.094 6.102,-0.65 6.102,-1.405 5.856,-2.038 5.364,-2.547 4.871,-3.054 4.191,-3.438 3.328,-3.696 l 5.112,-4.575 -2.345,0 -4.547,4.161 -2.548,0 0,-4.161 -1.807,0 0,10.466 3.807,0"
             style="fill:#333333;fill-opacity:1;fill-rule:nonzero;stroke:none"
             id="path3636" /></g></g></g></g></svg>