<?xml version="1.0" encoding="UTF-8" standalone="no"?>
<!-- Created with Inkscape (http://www.inkscape.org/) -->

<svg
   xmlns:dc="http://purl.org/dc/elements/1.1/"
   xmlns:cc="http://creativecommons.org/ns#"
   xmlns:rdf="http://www.w3.org/1999/02/22-rdf-syntax-ns#"
   xmlns:svg="http://www.w3.org/2000/svg"
   xmlns="http://www.w3.org/2000/svg"
   xmlns:sodipodi="http://sodipodi.sourceforge.net/DTD/sodipodi-0.dtd"
   xmlns:inkscape="http://www.inkscape.org/namespaces/inkscape"
   id="svg3120"
   version="1.1"
   inkscape:version="0.48.4 r9939"
   width="180"
   height="60"
   xml:space="preserve"
   sodipodi:docname="getDigital_Logo_druck_weiss.pdf"><metadata
     id="metadata3126"><rdf:RDF><cc:Work
         rdf:about=""><dc:format>image/svg+xml</dc:format><dc:type
           rdf:resource="http://purl.org/dc/dcmitype/StillImage" /><dc:title></dc:title></cc:Work></rdf:RDF></metadata><defs
     id="defs3124"><clipPath
       clipPathUnits="userSpaceOnUse"
       id="clipPath3134"><path
         d="m 13.689,30.611 -2.589,-2.589 0,-7.264 2.611,-2.61 5.719,0 0,-2.089 -1.262,-1.26 -6.024,0 0,-2.739 7.395,0 2.631,2.63 0,15.921 -8.481,0 z m 0.195,-8.44 0,4.459 1.196,1.197 4.35,0 0,-6.918 -4.284,0 -1.262,1.262 z"
         id="path3136" /></clipPath><linearGradient
       x1="0"
       y1="0"
       x2="1"
       y2="0"
       gradientUnits="userSpaceOnUse"
       gradientTransform="matrix(11.069016,0,0,11.069016,11.101563,21.34375)"
       spreadMethod="pad"
       id="linearGradient3142"><stop
         style="stop-opacity:1;stop-color:#f37c20"
         offset="0"
         id="stop3144" /><stop
         style="stop-opacity:1;stop-color:#f37c20"
         offset="1"
         id="stop3146" /></linearGradient><clipPath
       clipPathUnits="userSpaceOnUse"
       id="clipPath3154"><path
         d="m 26.714,30.785 -2.632,-2.632 0,-7.352 2.652,-2.653 7.2,0 0,2.805 -6.036,0 -1.01,1.011 0,1.1 8.111,0 0,5.045 -2.675,2.676 -5.61,0 z m 0.166,-4.017 1.212,1.211 2.855,0 1.222,-1.222 0.003,-0.887 -5.284,0 -0.008,0.898 z"
         id="path3156" /></clipPath><linearGradient
       x1="0"
       y1="0"
       x2="1"
       y2="0"
       gradientUnits="userSpaceOnUse"
       gradientTransform="matrix(10.916718,0,0,10.916718,24.085937,24.5)"
       spreadMethod="pad"
       id="linearGradient3162"><stop
         style="stop-opacity:1;stop-color:#f37c20"
         offset="0"
         id="stop3164" /><stop
         style="stop-opacity:1;stop-color:#f37c20"
         offset="1"
         id="stop3166" /></linearGradient><clipPath
       clipPathUnits="userSpaceOnUse"
       id="clipPath3174"><path
         d="m 38.843,33.59 0,-2.85 -2.086,0 0,-2.804 2.086,0 0,-7.178 2.611,-2.61 5.111,0 0,2.805 -3.733,0 -1.182,1.182 0,5.801 3.48,0 0,2.804 -3.48,0 0,2.85 -2.807,0 z"
         id="path3176" /></clipPath><linearGradient
       x1="0"
       y1="0"
       x2="1"
       y2="0"
       gradientUnits="userSpaceOnUse"
       gradientTransform="matrix(9.8075714,0,0,9.8075714,36.755859,25.84375)"
       spreadMethod="pad"
       id="linearGradient3182"><stop
         style="stop-opacity:1;stop-color:#f37c20"
         offset="0"
         id="stop3184" /><stop
         style="stop-opacity:1;stop-color:#f37c20"
         offset="1"
         id="stop3186" /></linearGradient></defs><sodipodi:namedview
     pagecolor="#ffffff"
     bordercolor="#666666"
     borderopacity="1"
     objecttolerance="10"
     gridtolerance="10"
     guidetolerance="10"
     inkscape:pageopacity="0"
     inkscape:pageshadow="2"
     inkscape:window-width="1596"
     inkscape:window-height="877"
     id="namedview3122"
     showgrid="false"
     inkscape:zoom="7.7888889"
     inkscape:cx="90"
     inkscape:cy="30"
     inkscape:window-x="0"
     inkscape:window-y="19"
     inkscape:window-maximized="1"
     inkscape:current-layer="g3128" /><g
     id="g3128"
     inkscape:groupmode="layer"
     inkscape:label="getDigital_Logo_druck_weiss"
     transform="matrix(1.25,0,0,-1.25,0,60)"><g
       id="g3130"><g
         id="g3132"
         clip-path="url(#clipPath3134)"><g
           id="g3138"><g
             id="g3140"><path
               d="m 13.689,30.611 -2.589,-2.589 0,-7.264 2.611,-2.61 5.719,0 0,-2.089 -1.262,-1.26 -6.024,0 0,-2.739 7.395,0 2.631,2.63 0,15.921 -8.481,0 z m 0.195,-8.44 0,4.459 1.196,1.197 4.35,0 0,-6.918 -4.284,0 -1.262,1.262 z"
               style="fill:url(#linearGradient3142);stroke:none"
               id="path3148" /></g></g></g></g><g
       id="g3150"><g
         id="g3152"
         clip-path="url(#clipPath3154)"><g
           id="g3158"><g
             id="g3160"><path
               d="m 26.714,30.785 -2.632,-2.632 0,-7.352 2.652,-2.653 7.2,0 0,2.805 -6.036,0 -1.01,1.011 0,1.1 8.111,0 0,5.045 -2.675,2.676 -5.61,0 z m 0.166,-4.017 1.212,1.211 2.855,0 1.222,-1.222 0.003,-0.887 -5.284,0 -0.008,0.898 z"
               style="fill:url(#linearGradient3162);stroke:none"
               id="path3168" /></g></g></g></g><g
       id="g3170"><g
         id="g3172"
         clip-path="url(#clipPath3174)"><g
           id="g3178"><g
             id="g3180"><path
               d="m 38.843,33.59 0,-2.85 -2.086,0 0,-2.804 2.086,0 0,-7.178 2.611,-2.61 5.111,0 0,2.805 -3.733,0 -1.182,1.182 0,5.801 3.48,0 0,2.804 -3.48,0 0,2.85 -2.807,0 z"
               style="fill:url(#linearGradient3182);stroke:none"
               id="path3188" /></g></g></g></g><g
       id="g3190"
       transform="translate(51.6304,21.4766)"><path
         d="m 0,0 7.087,0 1.373,1.373 0,8.15 L 7.065,10.917 0,10.917 0,0 z m -3.37,14.267 12.069,0 3.132,-3.133 0,-11.374 -3.089,-3.088 -12.112,0 0,17.595 z"
         style="fill:#000000;fill-opacity:1;fill-rule:nonzero;stroke:none"
         id="path3192" /></g><path
       d="m 65.222,30.719 2.827,0 0,-12.571 -2.827,0 0,12.571 z m 0,4.763 2.827,0 0,-2.806 -2.827,0 0,2.806 z"
       style="fill:#000000;fill-opacity:1;fill-rule:nonzero;stroke:none"
       id="path3194" /><g
       id="g3196"
       transform="translate(77.9668,27.8267)"><path
         d="m 0,0 -4.35,0 -1.195,-1.196 0,-4.459 1.262,-1.262 4.283,0 L 0,0 z m 2.74,-13.137 -2.631,-2.63 -7.394,0 0,2.739 6.023,0 1.262,1.262 0,2.088 -5.719,0 -2.61,2.609 0,7.264 2.589,2.589 8.48,0 0,-15.921 z"
         style="fill:#000000;fill-opacity:1;fill-rule:nonzero;stroke:none"
         id="path3198" /></g><path
       d="m 82.469,30.719 2.826,0 0,-12.571 -2.826,0 0,12.571 z m 0,4.763 2.826,0 0,-2.806 -2.826,0 0,2.806 z"
       style="fill:#000000;fill-opacity:1;fill-rule:nonzero;stroke:none"
       id="path3200" /><g
       id="g3202"
       transform="translate(96.8203,18.1484)"><path
         d="m 0,0 -5.109,0 -2.612,2.609 0,7.178 -2.086,0 0,2.805 2.086,0 0,2.849 2.807,0 0,-2.849 3.478,0 0,-2.805 -3.478,0 0,-5.8 L -3.732,2.805 0,2.805 0,0 z"
         style="fill:#000000;fill-opacity:1;fill-rule:nonzero;stroke:none"
         id="path3204" /></g><g
       id="g3206"
       transform="translate(106.7344,27.6099)"><path
         d="m 0,0 -4.066,0 -1.196,-1.197 0,-4.262 1.217,-1.219 4.045,0 L 0,0 z m 2.805,-6.678 1.74,0 0,-2.783 -9.701,0 -2.912,2.914 0,6.721 2.98,2.978 7.893,0 0,-9.83 z"
         style="fill:#000000;fill-opacity:1;fill-rule:nonzero;stroke:none"
         id="path3208" /></g><path
       d="m 115.865,18.148 -2.912,0 0,17.442 2.912,0 0,-17.442 z"
       style="fill:#000000;fill-opacity:1;fill-rule:nonzero;stroke:none"
       id="path3210" /><path
       d="m 119.279,18.148 -1.631,0 0,1.63 1.631,0 0,-1.63 z"
       style="fill:#000000;fill-opacity:1;fill-rule:nonzero;stroke:none"
       id="path3212" /><g
       id="g3214"
       transform="translate(125.3301,23.0425)"><path
         d="m 0,0 -2.188,0 -0.605,-0.607 0,-2.262 0.623,-0.624 2.17,0 L 0,0 z m 1.416,-4.894 -4.275,0 -1.327,1.326 0,3.676 1.295,1.294 2.891,0 0,2.447 1.416,0 0,-8.743 z"
         style="fill:#000000;fill-opacity:1;fill-rule:nonzero;stroke:none"
         id="path3216" /></g><g
       id="g3218"
       transform="translate(130.4629,23.064)"><path
         d="m 0,0 -0.604,-0.605 0.006,-0.45 2.639,0 L 2.039,-0.612 1.43,0 0,0 z m 2.119,1.402 1.338,-1.337 0,-2.523 -4.055,0 0,-0.55 0.502,-0.506 3.018,0 0,-1.402 -3.598,0 -1.326,1.327 0,3.676 1.314,1.315 2.807,0 z"
         style="fill:#000000;fill-opacity:1;fill-rule:nonzero;stroke:none"
         id="path3220" /></g></g></svg>