<?xml version="1.0" encoding="UTF-8" standalone="no"?>
<!-- Created with Inkscape (http://www.inkscape.org/) -->

<svg
   xmlns:dc="http://purl.org/dc/elements/1.1/"
   xmlns:cc="http://creativecommons.org/ns#"
   xmlns:rdf="http://www.w3.org/1999/02/22-rdf-syntax-ns#"
   xmlns:svg="http://www.w3.org/2000/svg"
   xmlns="http://www.w3.org/2000/svg"
   xmlns:sodipodi="http://sodipodi.sourceforge.net/DTD/sodipodi-0.dtd"
   xmlns:inkscape="http://www.inkscape.org/namespaces/inkscape"
   id="svg3676"
   version="1.1"
   inkscape:version="0.48.4 r9939"
   width="961.2594"
   height="451.35712"
   xml:space="preserve"
   sodipodi:docname="ubnt_logo_basic_flat_color.ai"><metadata
     id="metadata3682"><rdf:RDF><cc:Work
         rdf:about=""><dc:format>image/svg+xml</dc:format><dc:type
           rdf:resource="http://purl.org/dc/dcmitype/StillImage" /><dc:title></dc:title></cc:Work></rdf:RDF></metadata><defs
     id="defs3680"><clipPath
       clipPathUnits="userSpaceOnUse"
       id="clipPath3706"><path
         d="M 0,600 800,600 800,0 0,0 0,600 z"
         id="path3708"
         inkscape:connector-curvature="0" /></clipPath></defs><sodipodi:namedview
     pagecolor="#ffffff"
     bordercolor="#666666"
     borderopacity="1"
     objecttolerance="10"
     gridtolerance="10"
     guidetolerance="10"
     inkscape:pageopacity="0"
     inkscape:pageshadow="2"
     inkscape:window-width="1596"
     inkscape:window-height="877"
     id="namedview3678"
     showgrid="false"
     fit-margin-top="20"
     fit-margin-left="20"
     fit-margin-right="20"
     fit-margin-bottom="20"
     inkscape:zoom="0.55232478"
     inkscape:cx="549.47435"
     inkscape:cy="211.70832"
     inkscape:window-x="0"
     inkscape:window-y="19"
     inkscape:window-maximized="1"
     inkscape:current-layer="g3702" /><g
     id="g3684"
     inkscape:groupmode="layer"
     inkscape:label="ubnt_logo_basic_flat_color"
     transform="matrix(1.25,0,0,-1.25,-19.37075,583.28938)"><g
       id="g3686"
       transform="translate(448.2324,122.3301)"><path
         d="m 0,0 -4.007,0 0,38.023 6.358,0 15.15,-29.958 0.096,0 0,29.958 4.007,0 L 21.604,0 17.597,0 0.102,34.555 0,34.555 0,0 z"
         style="fill:#100f0d;fill-opacity:1;fill-rule:nonzero;stroke:none"
         id="path3688"
         inkscape:connector-curvature="0" /></g><g
       id="g3690"
       transform="translate(501.4072,156.9316)"><path
         d="m 0,0 -16.613,0 0,-12.952 11.878,0 0,-3.419 -11.878,0 0,-14.811 17.739,0 0,-3.42 -21.747,0 0,38.024 L 0,3.422 0,0 z"
         style="fill:#100f0d;fill-opacity:1;fill-rule:nonzero;stroke:none"
         id="path3692"
         inkscape:connector-curvature="0" /></g><g
       id="g3694"
       transform="translate(535.1338,156.9316)"><path
         d="m 0,0 -10.214,0 0,-34.602 -4.008,0 0,34.602 -10.215,0 0,3.422 L 0,3.422 0,0 z"
         style="fill:#100f0d;fill-opacity:1;fill-rule:nonzero;stroke:none"
         id="path3696"
         inkscape:connector-curvature="0" /></g><g
       id="g3698"
       transform="translate(569.9307,122.3301)"><path
         d="m 0,0 -3.909,0 -6.448,31.085 -0.101,0 L -17.249,0 l -3.91,0 -7.967,38.023 3.811,0 6.254,-30.692 0.096,0 6.848,30.692 3.762,0 6.501,-30.692 0.095,0 6.699,30.692 3.763,0 L 0,0 z"
         style="fill:#100f0d;fill-opacity:1;fill-rule:nonzero;stroke:none"
         id="path3700"
         inkscape:connector-curvature="0" /></g><g
       id="g3702"><g
         transform="translate(589.7285,141.3428)"
         id="g3710"><path
           inkscape:connector-curvature="0"
           id="path3712"
           style="fill:#100f0d;fill-opacity:1;fill-rule:nonzero;stroke:none"
           d="m 0,0 c 0,-11.534 4.492,-16.52 9.772,-16.52 5.281,0 9.773,4.986 9.773,16.52 0,11.534 -4.492,16.519 -9.773,16.519 C 4.492,16.519 0,11.534 0,0 m 23.553,0 c 0,-12.512 -5.863,-19.797 -13.781,-19.797 -7.918,0 -13.785,7.285 -13.785,19.797 0,12.512 5.867,19.793 13.785,19.793 7.918,0 13.781,-7.281 13.781,-19.793" /></g><g
         transform="translate(627.4033,142.8545)"
         id="g3714"><path
           inkscape:connector-curvature="0"
           id="path3716"
           style="fill:#100f0d;fill-opacity:1;fill-rule:nonzero;stroke:none"
           d="m 0,0 5.376,0 c 7.87,0 9.437,3.473 9.437,6.992 0,5.228 -3.278,7.085 -8.704,7.085 L 0,14.077 0,0 z m 4.986,17.499 c 11.83,0 13.834,-6.256 13.834,-10.655 0,-4.542 -2.882,-8.209 -7.188,-9.627 l 7.284,-17.741 -4.45,0 -6.889,17.105 -7.577,0 0,-17.105 -4.008,0 0,38.023 8.994,0 z" /></g><g
         transform="translate(675.0586,160.3535)"
         id="g3718"><path
           inkscape:connector-curvature="0"
           id="path3720"
           style="fill:#100f0d;fill-opacity:1;fill-rule:nonzero;stroke:none"
           d="M 0,0 4.448,0 -6.21,-14.026 5.669,-38.023 l -4.545,0 -10.071,20.476 -5.965,-7.72 0,-12.756 -4.007,0 0,38.023 4.007,0 0,-19.354 L 0,0 z" /></g><g
         transform="translate(709.0703,150.0898)"
         id="g3722"><path
           inkscape:connector-curvature="0"
           id="path3724"
           style="fill:#100f0d;fill-opacity:1;fill-rule:nonzero;stroke:none"
           d="m 0,0 c -1.268,4.252 -3.026,7.771 -7.912,7.771 -3.475,0 -6.698,-2.787 -6.698,-6.5 0,-9.48 18.522,-5.766 18.522,-19.06 0,-6.649 -4.933,-10.755 -11.34,-10.755 -6.796,0 -11.633,4.155 -12.948,10.755 l 3.856,0.929 c 0.934,-4.497 4.355,-8.407 9.146,-8.407 3.904,0 7.277,2.979 7.277,7.037 0,10.556 -18.521,6.158 -18.521,18.914 0,6.255 4.886,10.362 10.95,10.362 6.011,0 9.87,-4.446 11.286,-9.922 L 0,0 z" /></g><g
         transform="translate(113.1016,213.7686)"
         id="g3726"><path
           inkscape:connector-curvature="0"
           id="path3728"
           style="fill:#100f0d;fill-opacity:1;fill-rule:nonzero;stroke:none"
           d="m 0,0 c 0,-31.304 -22.632,-38.944 -40.804,-38.944 -18.171,0 -40.801,7.64 -40.801,38.944 l 0,79.988 13.545,0 0,-71.449 c 0,-18.126 1.487,-35.798 27.256,-35.798 25.771,0 27.258,17.672 27.258,35.798 l 0,71.449 L 0,79.988 0,0 z" /></g><g
         transform="translate(510.0732,213.7686)"
         id="g3730"><path
           inkscape:connector-curvature="0"
           id="path3732"
           style="fill:#100f0d;fill-opacity:1;fill-rule:nonzero;stroke:none"
           d="m 0,0 c 0,-31.304 -22.632,-38.944 -40.802,-38.944 -18.172,0 -40.802,7.64 -40.802,38.944 l 0,79.988 13.545,0 0,-71.449 c 0,-18.126 1.488,-35.798 27.257,-35.798 25.771,0 27.257,17.672 27.257,35.798 l 0,71.449 L 0,79.988 0,0 z" /></g><g
         transform="translate(160.1895,187.791)"
         id="g3734"><path
           inkscape:connector-curvature="0"
           id="path3736"
           style="fill:#100f0d;fill-opacity:1;fill-rule:nonzero;stroke:none"
           d="m 0,0 14.529,0 c 28.31,0 33.253,8.54 33.253,21.269 0,13.931 -6.44,24.118 -32.055,24.118 L 0,45.387 0,0 z m 10.935,55.871 c 14.98,0 34.152,-0.301 34.152,20.071 0,20.521 -18.126,19.623 -33.254,19.623 l -11.833,0 0,-39.694 10.935,0 z m -23.217,-66.354 0,116.533 32.055,0 c 29.806,0 37.598,-16.927 37.598,-29.958 0,-12.432 -7.191,-22.169 -19.326,-25.163 13.933,-4.193 22.019,-14.081 22.019,-28.911 0,-13.78 -5.99,-32.501 -38.494,-32.501 l -33.852,0 z" /></g><path
         inkscape:connector-curvature="0"
         id="path3738"
         style="fill:#100f0d;fill-opacity:1;fill-rule:nonzero;stroke:none"
         d="m 264.812,177.284 -11.696,0 0,90.27 11.696,0 0,-90.27 z" /><path
         inkscape:connector-curvature="0"
         id="path3740"
         style="fill:#100f0d;fill-opacity:1;fill-rule:nonzero;stroke:none"
         d="m 555.512,177.284 -11.681,0 0,90.27 11.681,0 0,-90.27 z" /><path
         inkscape:connector-curvature="0"
         id="path3742"
         style="fill:#100f0d;fill-opacity:1;fill-rule:nonzero;stroke:none"
         d="m 708.666,177.284 -11.67,0 0,90.27 11.67,0 0,-90.27 z" /><g
         transform="translate(308.6084,235.668)"
         id="g3744"><path
           inkscape:connector-curvature="0"
           id="path3746"
           style="fill:#100f0d;fill-opacity:1;fill-rule:nonzero;stroke:none"
           d="m 0,0 c 0,-35.349 17.975,-49.332 35.868,-49.332 17.89,0 32.858,13.872 32.858,49.24 0,35.349 -15.262,50.624 -33.15,50.624 C 17.697,50.532 0,35.349 0,0 m 96.786,-71.768 0,-10.48 -9.112,0 c -22.647,-0.357 -42.086,4.135 -55.335,22.074 -42.447,4.856 -45.06,36.674 -45.06,59.411 2.613,49.731 21.454,61.326 48.297,61.326 26.851,0 45.145,-21.472 45.145,-59.806 0,-22.783 -0.389,-42.618 -32.138,-60.565 5.989,-8.585 17.165,-12.319 39.091,-11.96 l 9.112,0 z" /></g><g
         transform="translate(664.8037,283.3467)"
         id="g3748"><path
           inkscape:connector-curvature="0"
           id="path3750"
           style="fill:#100f0d;fill-opacity:1;fill-rule:nonzero;stroke:none"
           d="m 0,0 -39.469,0 0,-106.063 -12.29,0 0,106.063 -41.855,0 0,10.492 L 0,10.492 0,0 z" /></g><g
         transform="translate(726.9072,304.0205)"
         id="g3752"><path
           inkscape:connector-curvature="0"
           id="path3754"
           style="fill:#1162a5;fill-opacity:1;fill-rule:nonzero;stroke:none"
           d="m 0,0 c -4.737,-2.75 -11.532,-5.187 -19.254,-6.593 -4.481,-0.817 -8.8,-1.206 -12.687,-1.206 -5.04,-0.005 -9.385,0.662 -12.389,1.789 -3.067,1.137 -4.477,2.638 -4.658,3.883 l -0.005,0.022 c -0.027,0.139 -0.037,0.29 -0.037,0.465 -0.137,1.746 2.237,4.889 7.053,7.606 4.742,2.75 11.533,5.182 19.232,6.583 4.487,0.823 8.808,1.211 12.706,1.211 5.042,0 9.384,-0.662 12.393,-1.788 C 5.424,10.834 6.835,9.333 7.019,8.097 7.049,7.944 7.06,7.777 7.06,7.613 7.194,5.866 4.816,2.724 0,0 m -203.114,9.432 c 5.193,1.996 12.583,3.282 20.758,3.282 l 0.053,0 c 8.19,0.005 15.591,-1.283 20.787,-3.282 5.308,-1.984 7.83,-4.739 7.668,-6.459 0.162,-1.714 -2.36,-4.47 -7.668,-6.458 -5.196,-2.001 -12.597,-3.289 -20.787,-3.283 -8.195,-0.006 -15.607,1.282 -20.811,3.283 -5.311,1.988 -7.837,4.744 -7.668,6.458 -0.169,1.72 2.357,4.475 7.668,6.459 m -232.972,-11.587 0,0 c -0.2,-1.239 -1.615,-2.725 -4.66,-3.855 -3.013,-1.125 -7.356,-1.792 -12.403,-1.787 -3.893,0 -8.212,0.387 -12.699,1.204 -7.703,1.407 -14.492,3.844 -19.237,6.595 -4.818,2.722 -7.199,5.866 -7.065,7.613 0,0.173 0.018,0.325 0.04,0.447 0.192,1.272 1.608,2.774 4.673,3.911 3.008,1.127 7.348,1.787 12.39,1.787 3.894,0 8.209,-0.386 12.699,-1.21 7.721,-1.402 14.515,-3.838 19.25,-6.587 4.816,-2.723 7.194,-5.86 7.058,-7.612 0,-0.153 -0.019,-0.32 -0.046,-0.506 M 10.773,8.774 c -0.654,3.333 -3.505,5.44 -7.086,6.777 l -220.584,80.219 130.784,-5.693 0,19.527 -144.859,-8.848 37.233,32.909 -14.75,12.946 -26.095,-45.631 -61.084,24.746 -7.05,-16.8 52.009,-7.708 -123.518,-2.737 -19.982,-31.101 145.759,29.508 -240.316,-81.337 c -3.585,-1.337 -6.431,-3.444 -7.09,-6.767 -0.08,-0.387 -0.107,-0.789 -0.107,-1.171 0.134,-4.403 3.798,-7.859 8.967,-10.919 5.244,-3.029 12.387,-5.562 20.459,-7.045 4.705,-0.852 9.243,-1.261 13.388,-1.261 5.377,0 10.083,0.672 13.735,2.022 l 1.847,0.815 196.839,104.3 -29.053,-61.977 23.385,-7.94 10.657,70.162 c 0,0 21.422,-94.844 21.848,-95.751 1.456,-3.111 5.011,-5.342 9.41,-7.068 5.797,-2.218 13.576,-3.534 22.178,-3.534 8.585,0 16.359,1.316 22.151,3.534 5.679,2.23 9.954,5.3 10.119,10.022 -0.053,1.478 -0.504,2.794 -1.275,3.971 L -226.839,92.996 -45.66,-9.59 c 3.641,-1.35 8.347,-2.022 13.719,-2.022 4.139,0 8.67,0.409 13.377,1.261 8.09,1.483 15.232,4.016 20.482,7.045 5.163,3.06 8.826,6.516 8.962,10.919 0,0.391 -0.039,0.779 -0.107,1.161" /></g><g
         transform="translate(765.7891,290.9092)"
         id="g3756"><path
           inkscape:connector-curvature="0"
           id="path3758"
           style="fill:#100f0d;fill-opacity:1;fill-rule:nonzero;stroke:none"
           d="m 0,0 -0.077,0 -4.104,-11.075 -1.881,0 L -10.18,0 l -0.062,0 0,-11.075 -2.73,0 0,14.005 4.042,0 3.809,-9.919 3.794,9.919 4.042,0 0,-14.005 -2.715,0 L 0,0 z m -22.843,0.616 -4.167,0 0,2.314 11.277,0 0,-2.314 -4.181,0 0,-11.691 -2.929,0 0,11.691 z" /></g></g></g></svg>